<svg width="48" height="48" viewBox="0 0 48 48" fill="none" xmlns="http://www.w3.org/2000/svg">
<path d="M24 4C12.98 4 4 12.98 4 24C4 35.02 12.98 44 24 44C35.02 44 44 35.02 44 24C44 12.98 35.02 4 24 4ZM29.58 25.06L22.52 32.12C22.22 32.42 21.84 32.56 21.46 32.56C21.08 32.56 20.7 32.42 20.4 32.12C20.121 31.8377 19.9646 31.4569 19.9646 31.06C19.9646 30.6631 20.121 30.2823 20.4 30L26.4 24L20.4 18C20.121 17.7177 19.9646 17.3369 19.9646 16.94C19.9646 16.5431 20.121 16.1623 20.4 15.88C20.98 15.3 21.94 15.3 22.52 15.88L29.58 22.94C30.18 23.52 30.18 24.48 29.58 25.06Z" fill="white"/>
</svg>
