<svg width="48" height="49" viewBox="0 0 48 49" fill="none" xmlns="http://www.w3.org/2000/svg">
<path d="M39.92 18.416C38.58 16.936 36.56 16.076 33.76 15.776V14.256C33.76 11.516 32.6 8.876 30.56 7.036C29.5533 6.1131 28.363 5.4133 27.0671 4.98247C25.7712 4.55164 24.3988 4.39949 23.04 4.536C18.26 4.996 14.24 9.616 14.24 14.616V15.776C11.44 16.076 9.41998 16.936 8.07998 18.416C6.13998 20.576 6.19998 23.456 6.41998 25.456L7.81998 36.596C8.23998 40.496 9.81998 44.496 18.42 44.496H29.58C38.18 44.496 39.76 40.496 40.18 36.616L41.58 25.436C41.8 23.456 41.84 20.576 39.92 18.416ZM23.32 7.316C24.2892 7.21864 25.2681 7.32571 26.1934 7.6303C27.1187 7.93489 27.9698 8.43021 28.6918 9.08427C29.4137 9.73833 29.9903 10.5366 30.3845 11.4274C30.7786 12.3182 30.9815 13.2819 30.98 14.256V15.656H17.02V14.616C17.02 11.056 19.96 7.636 23.32 7.316ZM16.84 26.796H16.82C15.72 26.796 14.82 25.896 14.82 24.796C14.82 23.696 15.72 22.796 16.82 22.796C17.94 22.796 18.84 23.696 18.84 24.796C18.84 25.896 17.94 26.796 16.84 26.796ZM30.84 26.796H30.82C29.72 26.796 28.82 25.896 28.82 24.796C28.82 23.696 29.72 22.796 30.82 22.796C31.94 22.796 32.84 23.696 32.84 24.796C32.84 25.896 31.94 26.796 30.84 26.796Z" fill="#F8EBFF"/>
</svg>
