<svg width="48" height="38" viewBox="0 0 48 38" fill="none" xmlns="http://www.w3.org/2000/svg">
<path d="M23.1594 10.0988L7.93069 22.6414V36.1784C7.93069 36.5289 8.06993 36.8651 8.31777 37.1129C8.56562 37.3608 8.90177 37.5 9.25227 37.5L18.5083 37.476C18.8576 37.4743 19.1921 37.3343 19.4385 37.0866C19.6849 36.839 19.8232 36.5038 19.8232 36.1545V28.249C19.8232 27.8985 19.9625 27.5623 20.2103 27.3145C20.4581 27.0666 20.7943 26.9274 21.1448 26.9274H26.4311C26.7816 26.9274 27.1178 27.0666 27.3656 27.3145C27.6134 27.5623 27.7527 27.8985 27.7527 28.249V36.1487C27.7521 36.3226 27.7859 36.4949 27.8521 36.6557C27.9183 36.8165 28.0155 36.9627 28.1383 37.0859C28.2611 37.209 28.4069 37.3067 28.5676 37.3734C28.7282 37.4401 28.9004 37.4744 29.0743 37.4744L38.3269 37.5C38.6774 37.5 39.0136 37.3608 39.2614 37.1129C39.5093 36.8651 39.6485 36.5289 39.6485 36.1784V22.6323L24.4231 10.0988C24.2441 9.95449 24.0212 9.87581 23.7913 9.87581C23.5614 9.87581 23.3384 9.95449 23.1594 10.0988ZM47.2145 18.6238L40.3093 12.9319V1.49118C40.3093 1.2283 40.2049 0.976193 40.019 0.790311C39.8331 0.604428 39.581 0.5 39.3181 0.5H34.6926C34.4297 0.5 34.1776 0.604428 33.9917 0.790311C33.8059 0.976193 33.7014 1.2283 33.7014 1.49118V7.48866L26.3064 1.40445C25.5967 0.820465 24.7062 0.501167 23.7871 0.501167C22.8681 0.501167 21.9775 0.820465 21.2679 1.40445L0.359715 18.6238C0.259348 18.7067 0.17631 18.8086 0.115345 18.9237C0.0543811 19.0388 0.0166855 19.1647 0.00441254 19.2943C-0.00786045 19.424 0.00552969 19.5548 0.0438179 19.6792C0.082106 19.8037 0.144542 19.9194 0.227558 20.0197L2.33382 22.5802C2.41661 22.6809 2.51844 22.7643 2.63349 22.8255C2.74853 22.8868 2.87453 22.9247 3.00426 22.9373C3.134 22.9498 3.26493 22.9366 3.38956 22.8984C3.51419 22.8602 3.63007 22.7979 3.73056 22.7149L23.1594 6.71223C23.3384 6.56795 23.5614 6.48928 23.7913 6.48928C24.0212 6.48928 24.2441 6.56795 24.4231 6.71223L43.8528 22.7149C43.9531 22.7979 44.0688 22.8603 44.1933 22.8986C44.3177 22.9369 44.4485 22.9503 44.5781 22.938C44.7078 22.9257 44.8337 22.888 44.9488 22.8271C45.0638 22.7661 45.1657 22.6831 45.2487 22.5827L47.355 20.0222C47.4379 19.9213 47.5001 19.805 47.5379 19.68C47.5757 19.555 47.5885 19.4237 47.5754 19.2938C47.5624 19.1638 47.5238 19.0377 47.4619 18.9227C47.3999 18.8078 47.3159 18.7062 47.2145 18.6238Z" fill="#F8EBFF"/>
</svg>
