<svg width="62" height="54" viewBox="0 0 62 54" fill="none" xmlns="http://www.w3.org/2000/svg">
<path d="M7.65 26.85C7.45 26.7833 7.23333 26.7333 7 26.7C6.8 26.6667 6.58333 26.6167 6.35 26.55L6.6 26.7C6.46667 26.7 6.33333 26.6667 6.2 26.6C6.1 26.5667 6 26.5667 5.9 26.6L4.95 26.35L4.9 26.3C4.76667 26.1667 4.63333 26.05 4.5 25.95C4.36667 25.85 4.18333 25.8333 3.95 25.9C4.01667 25.9333 4.08333 25.95 4.15 25.95C4.21667 25.95 4.26667 25.9833 4.3 26.05H4.2C4.06667 26.05 3.96667 26.0167 3.9 25.95C3.83333 25.8833 3.75 25.8167 3.65 25.75C3.15 25.45 2.7 25.1 2.3 24.7V24.65C2.16667 24.4833 2.06667 24.3167 2 24.15C1.93333 23.95 1.81667 23.8 1.65 23.7H1.6C1.5 23.5 1.4 23.2833 1.3 23.05C1.23333 22.7833 1.16667 22.5333 1.1 22.3C1.1 22.2 1.08333 22.1167 1.05 22.05C1.05 21.95 1.05 21.85 1.05 21.75C1.05 21.6167 1.05 21.5 1.05 21.4C1.08333 21.2667 1.11667 21.1333 1.15 21C0.983333 21.0667 0.9 21.0167 0.9 20.85C0.866667 20.4833 0.85 20.1167 0.85 19.75C0.883333 19.3833 0.933333 18.9833 1 18.55L1.15 17.8C1.21667 17.6333 1.31667 17.5167 1.45 17.45C1.58333 17.3833 1.63333 17.2667 1.6 17.1C1.56667 17.1 1.53333 17.1167 1.5 17.15C1.46667 17.1833 1.41667 17.2 1.35 17.2C1.35 17.2 1.33333 17.2 1.3 17.2C1.3 17.1667 1.3 17.1333 1.3 17.1H1.35V17.05C1.31667 17.0167 1.31667 17 1.35 17C1.38333 17 1.38333 16.9833 1.35 16.95V16.9C1.35 16.7333 1.4 16.5667 1.5 16.4C1.6 16.2 1.68333 16 1.75 15.8C1.81667 15.6333 1.91667 15.4833 2.05 15.35C2.21667 15.2167 2.26667 15.05 2.2 14.85H2.05C2.15 14.7833 2.2 14.7167 2.2 14.65L2.25 14.6L2.75 13.55H2.8C3.06667 13.55 3.18333 13.4833 3.15 13.35C3.15 13.2167 3.15 13.0667 3.15 12.9V12.85L3.55 12.2C3.75 12.1 3.88333 11.95 3.95 11.75C4.01667 11.5167 4.11667 11.3333 4.25 11.2C4.31667 11.0333 4.41667 10.9 4.55 10.8C4.68333 10.6667 4.8 10.5167 4.9 10.35C5.1 10.0833 5.3 9.83333 5.5 9.6C5.7 9.33333 5.91667 9.08333 6.15 8.85C6.31667 8.78333 6.43333 8.7 6.5 8.6C6.56667 8.5 6.65 8.38333 6.75 8.25C6.75 8.21667 6.75 8.2 6.75 8.2C6.78333 8.2 6.8 8.18333 6.8 8.15C6.9 8.01667 7.03333 7.93333 7.2 7.9C7.36667 7.86667 7.48333 7.76667 7.55 7.6C7.61667 7.43333 7.71667 7.28333 7.85 7.15C8.11667 6.88333 8.4 6.63333 8.7 6.4C9 6.13333 9.3 5.88333 9.6 5.65C9.8 5.61667 9.95 5.58333 10.05 5.55C10.15 5.48333 10.2 5.35 10.2 5.15H10.25C10.6167 4.88333 10.9833 4.63333 11.35 4.4C11.7167 4.16667 12.0667 3.95 12.4 3.75C12.6667 3.58333 12.9167 3.43333 13.15 3.3C13.4167 3.16667 13.6667 3.03333 13.9 2.9H14.05C14.1833 2.9 14.2833 2.86667 14.35 2.8C14.4167 2.73333 14.5 2.65 14.6 2.55H14.65C17.1167 1.45 19.4 0.899999 21.5 0.899999C21.7667 0.899999 22.05 0.916665 22.35 0.949998C22.65 0.949998 22.9333 0.966665 23.2 0.999999C24.7667 1.2 25.95 1.71666 26.75 2.55C27.55 3.35 27.95 4.23333 27.95 5.2C27.95 5.53333 27.9 5.88333 27.8 6.25C28.1333 6.01667 28.4333 5.78333 28.7 5.55C28.9667 5.31667 29.1833 5.05 29.35 4.75C29.4167 4.65 29.5 4.61667 29.6 4.65C29.7 4.65 29.7167 4.7 29.65 4.8C29.55 5.1 29.3333 5.43333 29 5.8C28.6667 6.13333 28.3 6.43333 27.9 6.7C27.9 6.73333 27.8167 6.85 27.65 7.05C27.4833 7.21667 27.4167 7.33333 27.45 7.4C27.45 7.43333 27.4 7.5 27.3 7.6C27.2333 7.66667 27.1833 7.73333 27.15 7.8L26.8 8.25C26.8 8.25 26.8 8.26667 26.8 8.3C26.8 8.3 26.7833 8.31667 26.75 8.35C26.75 8.35 26.6833 8.38333 26.55 8.45C26.4833 8.51667 26.3833 8.63333 26.25 8.8C26.15 8.96667 26.0167 9.08333 25.85 9.15L25.65 9.25C25.6167 9.28333 25.5833 9.33333 25.55 9.4C25.5167 9.43333 25.4667 9.48333 25.4 9.55C25.2667 9.68333 25.0167 9.85 24.65 10.05C24.3167 10.2167 24.0667 10.3667 23.9 10.5C23.9 10.5 23.8667 10.5167 23.8 10.55C23.7333 10.5833 23.65 10.6333 23.55 10.7L23.4 10.75C23.3667 10.75 23.3 10.7833 23.2 10.85C23.1333 10.9167 23.0833 10.9667 23.05 11C23.0167 11.0333 22.9667 11.05 22.9 11.05C22.8667 11.05 22.8167 11.0833 22.75 11.15C22.7167 11.1833 22.6667 11.2 22.6 11.2C22.5333 11.2 22.4667 11.2333 22.4 11.3L21.65 11.5C21.6167 11.5333 21.5167 11.6 21.35 11.7C21.2167 11.7667 21.1333 11.8 21.1 11.8H21C20.9667 11.8 20.9333 11.8167 20.9 11.85C20.9 11.8833 20.8667 11.9 20.8 11.9C20.7667 11.9333 20.7167 11.95 20.65 11.95C20.6167 11.9167 20.5667 11.9167 20.5 11.95C20.4667 11.95 20.4167 11.9833 20.35 12.05C20.3167 12.0833 20.2833 12.1 20.25 12.1H20.1L19.8 12.25C19.6667 12.2833 19.5167 12.3 19.35 12.3C19.2167 12.3 19.0667 12.3333 18.9 12.4C18.8667 12.4 18.8 12.3833 18.7 12.35C18.6333 12.3167 18.5667 12.3 18.5 12.3C18.2 12.4 17.9 12.45 17.6 12.45C17.5667 12.4833 17.5333 12.4833 17.5 12.45C17.5 12.4167 17.4833 12.4 17.45 12.4C17.4167 12.4 17.4 12.4167 17.4 12.45C17.4 12.45 17.3833 12.45 17.35 12.45C17.35 12.45 17.3 12.45 17.2 12.45C17.1333 12.4167 17.0833 12.3833 17.05 12.35H17C16.9333 12.35 16.8833 12.3333 16.85 12.3C16.8167 12.2667 16.7833 12.25 16.75 12.25C16.75 12.25 16.75 12.2667 16.75 12.3C16.75 12.3 16.7333 12.3 16.7 12.3C16.6667 12.3 16.6333 12.2833 16.6 12.25C16.5333 12.25 16.4167 12.2333 16.25 12.2C16.1167 12.1333 16.0333 12.0833 16 12.05C15.9 12.0833 15.8 12.05 15.7 11.95C15.6333 11.8833 15.6 11.8667 15.6 11.9L15.25 11.75C15.25 11.7167 15.2333 11.7 15.2 11.7C15.2 11.6667 15.2 11.65 15.2 11.65H15.1C15.0333 11.5833 14.9833 11.55 14.95 11.55C14.9167 11.45 14.8833 11.3833 14.85 11.35C14.8167 11.3167 14.7667 11.2667 14.7 11.2C14.7 11.0667 14.6833 11 14.65 11C14.65 10.9333 14.6 10.8333 14.5 10.7C14.4333 10.5333 14.4 10.3833 14.4 10.25L14.35 10.2C14.2167 10.0667 14.1833 9.83333 14.25 9.5C14.2833 9.33333 14.2667 9.26667 14.2 9.3C14.1333 9.3 14.15 9.2 14.25 9L14.5 8.5C14.5 8.46667 14.4833 8.45 14.45 8.45C14.4167 8.41667 14.4167 8.38333 14.45 8.35C14.45 8.31667 14.45 8.3 14.45 8.3C14.4833 8.26667 14.5 8.23333 14.5 8.2C14.5333 8.16667 14.55 8.1 14.55 8C14.55 7.93333 14.5667 7.88333 14.6 7.85C14.6 7.81667 14.6333 7.75 14.7 7.65C14.8 7.51667 14.8667 7.43333 14.9 7.4L15.2 7.05C15.2333 7.01667 15.2833 6.98333 15.35 6.95C15.4167 6.91667 15.4667 6.86667 15.5 6.8C15.5667 6.73333 15.6333 6.7 15.7 6.7C15.8 6.66667 15.8667 6.61667 15.9 6.55C16 6.38333 16.1167 6.3 16.25 6.3H16.35C16.4833 6.3 16.55 6.33333 16.55 6.4C16.55 6.56667 16.45 6.7 16.25 6.8C16.1167 6.93333 16.05 7 16.05 7C16.05 6.96667 16 7 15.9 7.1C15.9 7.13333 15.8667 7.15 15.8 7.15C15.7667 7.15 15.75 7.18333 15.75 7.25C15.7167 7.25 15.7167 7.26667 15.75 7.3C15.7833 7.33333 15.7833 7.38333 15.75 7.45C15.75 7.58333 15.75 7.65 15.75 7.65C15.7167 7.68333 15.7167 7.73333 15.75 7.8C15.7833 7.83333 15.7833 7.88333 15.75 7.95C15.7167 7.95 15.6833 7.96667 15.65 8L15.6 8.7C15.6 8.7 15.6167 8.8 15.65 9C15.6833 9.16667 15.6833 9.26667 15.65 9.3V9.55C15.65 9.65 15.8 9.75 16.1 9.85C16.1333 9.88333 16.1667 9.9 16.2 9.9C16.2667 9.86667 16.3167 9.86667 16.35 9.9C16.7833 10.0333 17.0667 10.1333 17.2 10.2C17.3333 10.2333 17.6333 10.25 18.1 10.25H18.5C18.6667 10.25 18.8167 10.2333 18.95 10.2C18.9833 10.2 18.9833 10.2167 18.95 10.25C18.95 10.25 18.9667 10.25 19 10.25L19.6 10.15C19.6333 10.1167 19.6667 10.1 19.7 10.1C19.7333 10.0667 19.7667 10.0667 19.8 10.1C19.8333 10.1 19.8667 10.1 19.9 10.1L21 9.8C21.2 9.73333 21.3833 9.66667 21.55 9.6C21.75 9.5 21.95 9.43333 22.15 9.4C22.45 9.33333 22.7667 9.21667 23.1 9.05C23.4333 8.85 23.7667 8.68333 24.1 8.55C24.1 8.51667 24.25 8.41667 24.55 8.25C24.8833 8.08333 25.2333 7.9 25.6 7.7L25.75 7.2C25.8167 7.03333 25.9167 6.95 26.05 6.95C26.1833 6.91667 26.2833 6.85 26.35 6.75C26.25 6.68333 26.1667 6.63333 26.1 6.6C26.0333 6.56667 26.0333 6.48333 26.1 6.35V6.3L26.35 5.5C26.4833 5.1 26.55 4.71667 26.55 4.35C26.55 3.51667 26.2333 2.91667 25.6 2.55C24.9667 2.18333 24.2167 2 23.35 2C23.2167 2 23.0667 2 22.9 2C22.7667 2 22.6167 2.01667 22.45 2.05C22.15 2.08333 21.85 2.13333 21.55 2.2C21.25 2.26667 20.9333 2.33333 20.6 2.4H20.5C20.3667 2.4 20.25 2.43333 20.15 2.5C20.05 2.53333 19.95 2.58333 19.85 2.65C19.3833 2.78333 18.8667 2.96667 18.3 3.2C18 3.26667 17.7833 3.36667 17.65 3.5C17.5167 3.56667 17.4333 3.6 17.4 3.6V3.65C17.2 3.71667 17.0333 3.75 16.9 3.75C16.8333 3.75 16.75 3.75 16.65 3.75C16.55 3.71667 16.45 3.7 16.35 3.7C16.4167 3.73333 16.4667 3.75 16.5 3.75C16.5333 3.75 16.5667 3.76667 16.6 3.8C16.6333 3.9 16.6 3.96667 16.5 4C16.4333 4.03333 16.3833 4.08333 16.35 4.15H16.3C16.2667 4.18333 16.2 4.21667 16.1 4.25C16.0333 4.28333 15.9667 4.33333 15.9 4.4C15.6 4.43333 15.3333 4.53333 15.1 4.7C14.9 4.86667 14.7167 5.05 14.55 5.25H14.5L13.35 6.05C13.0833 6.18333 12.85 6.35 12.65 6.55C12.2167 6.88333 11.7833 7.23333 11.35 7.6C10.9167 7.96667 10.4833 8.33333 10.05 8.7H9.95C9.78333 8.7 9.68333 8.75 9.65 8.85C9.65 8.91667 9.61667 9.03333 9.55 9.2H9.5C9.4 9.33333 9.28333 9.45 9.15 9.55C9.01667 9.58333 8.93333 9.65 8.9 9.75C8.86667 9.85 8.8 9.95 8.7 10.05L8.35 10.4C8.21667 10.3667 8.06667 10.3167 7.9 10.25C7.76667 10.15 7.61667 10.1 7.45 10.1C7.45 10.1 7.43333 10.1167 7.4 10.15C7.4 10.15 7.4 10.1833 7.4 10.25C7.6 10.2833 7.76667 10.3667 7.9 10.5C8.03333 10.6333 8.01667 10.7833 7.85 10.95L7.75 11.05C7.61667 11.1833 7.45 11.2333 7.25 11.2C7.08333 11.1667 6.93333 11.2333 6.8 11.4C6.86667 11.4333 6.95 11.45 7.05 11.45C7.15 11.45 7.2 11.5333 7.2 11.7C7.03333 11.9 6.86667 12.1 6.7 12.3C6.56667 12.5 6.41667 12.7 6.25 12.9C6.11667 13.0333 6 13.1833 5.9 13.35C5.8 13.4833 5.66667 13.6 5.5 13.7C5.46667 13.7333 5.45 13.7833 5.45 13.85C5.48333 13.8833 5.48333 13.9167 5.45 13.95V14L4.7 15.2C4.53333 15.3 4.4 15.4 4.3 15.5C4.2 15.6 4.15 15.75 4.15 15.95C4.28333 15.8167 4.35 15.7667 4.35 15.8V15.85C4.35 15.9167 4.31667 15.9833 4.25 16.05C4.18333 16.0833 4.13333 16.1333 4.1 16.2L3.85 16.8C3.51667 17.5667 3.28333 18.25 3.15 18.85C2.95 19.4833 2.85 20.0833 2.85 20.65C2.81667 20.7833 2.75 20.9167 2.65 21.05C2.58333 21.15 2.6 21.2667 2.7 21.4C2.76667 21.4667 2.81667 21.5167 2.85 21.55C2.88333 21.55 2.9 21.6167 2.9 21.75C2.9 21.9167 2.91667 22.0333 2.95 22.1V22.25C2.95 22.35 2.91667 22.45 2.85 22.55C2.78333 22.65 2.76667 22.75 2.8 22.85C2.83333 22.8833 2.9 22.9 3 22.9C3.1 22.8667 3.16667 22.8833 3.2 22.95L3.5 23.5C3.6 23.5667 3.66667 23.6667 3.7 23.8C3.73333 23.9333 3.76667 24.0333 3.8 24.1C3.86667 24.1667 3.95 24.2333 4.05 24.3C4.15 24.3333 4.21667 24.4 4.25 24.5C4.25 24.5333 4.23333 24.5667 4.2 24.6C4.2 24.6 4.2 24.6333 4.2 24.7C4.36667 24.6333 4.38333 24.5 4.25 24.3C4.45 24.4333 4.45 24.5667 4.25 24.7C4.31667 24.7 4.38333 24.7 4.45 24.7C4.51667 24.6667 4.58333 24.65 4.65 24.65C4.78333 24.65 4.91667 24.7 5.05 24.8C5.58333 25.0667 6.18333 25.25 6.85 25.35C7.55 25.4833 8.3 25.55 9.1 25.55C10 25.55 10.9667 25.4667 12 25.3C13.0333 25.1667 14.0667 24.9833 15.1 24.75V24.7C15.1667 24.7 15.2167 24.7167 15.25 24.75C15.2833 24.75 15.3167 24.75 15.35 24.75C15.5167 24.75 15.6667 24.6833 15.8 24.55L16.35 24.4C16.6167 24.2333 16.8667 24.1 17.1 24C17.3333 23.9 17.5833 23.8833 17.85 23.95C17.9167 23.9833 17.9167 24.0167 17.85 24.05C17.8167 24.05 17.8 24.0833 17.8 24.15C17.8667 24.1167 17.9167 24.0667 17.95 24C17.9833 23.9333 18.0333 23.8833 18.1 23.85L18.4 23.75C18.6333 23.7167 18.8333 23.6667 19 23.6C19.1667 23.5 19.35 23.4167 19.55 23.35L20.1 23.15C20.1667 23.1833 20.2333 23.2 20.3 23.2C20.4333 23.2 20.5333 23.1667 20.6 23.1C20.6667 23 20.7667 22.9 20.9 22.8C20.9333 22.8 21.0167 22.7667 21.15 22.7C21.3167 22.6333 21.5 22.5833 21.7 22.55C21.9 22.4833 22.0667 22.3833 22.2 22.25H22.25C22.75 22.0167 23.2333 21.7833 23.7 21.55C24.1667 21.3167 24.6167 21.0833 25.05 20.85L26.4 20.1C26.5667 19.9667 26.7 19.85 26.8 19.75C26.9 19.65 27.0333 19.6 27.2 19.6L27.25 19.55C27.4833 19.3167 27.7333 19.1333 28 19C28.2667 18.8333 28.4833 18.6667 28.65 18.5C28.9167 18.2667 29.1167 18.15 29.25 18.15C29.35 18.15 29.4 18.2167 29.4 18.35C29.4 18.5167 29.3 18.7 29.1 18.9C28.8 19.1667 28.4667 19.4667 28.1 19.8C27.7333 20.1333 27.3167 20.4833 26.85 20.85C26.6833 20.9833 26.5 21.0667 26.3 21.1C26.1333 21.1333 26.0167 21.25 25.95 21.45C25.75 21.5833 25.5333 21.7167 25.3 21.85C25.1 21.9833 24.8667 22.1167 24.6 22.25C24.3 22.4167 23.9833 22.5833 23.65 22.75C23.35 22.9167 23.0167 23.0833 22.65 23.25C22.55 23.25 22.4333 23.25 22.3 23.25C22.2 23.2167 22.1 23.2 22 23.2C21.7667 23.2 21.6 23.25 21.5 23.35C21.5 23.35 21.5 23.3667 21.5 23.4C21.5 23.4 21.5167 23.4333 21.55 23.5C21.6167 23.5 21.6833 23.5 21.75 23.5C21.8167 23.4667 21.8833 23.4667 21.95 23.5C21.95 23.5 21.95 23.5167 21.95 23.55C21.95 23.5833 21.9167 23.6 21.85 23.6C21.7167 23.6667 21.6167 23.7 21.55 23.7V23.75L21.2 23.9H21.15C21.0167 24.0333 20.9167 24 20.85 23.8C20.75 23.8333 20.65 23.9 20.55 24C20.4833 24.1 20.4 24.1833 20.3 24.25L19.95 24.4C19.8167 24.4333 19.6833 24.4667 19.55 24.5C19.4167 24.5 19.3167 24.55 19.25 24.65H19.2C19.0667 24.7167 18.9 24.7833 18.7 24.85C18.5333 24.8833 18.3667 24.9333 18.2 25V25.05H17.95C17.7833 25.05 17.6 25.0333 17.4 25C17.2 24.9333 17 24.9 16.8 24.9C16.8667 25 16.9833 25.05 17.15 25.05C17.3167 25.0833 17.3667 25.1667 17.3 25.3C17.3 25.3333 17.2833 25.35 17.25 25.35L15.95 25.7V25.75C15.8167 25.7833 15.6667 25.8 15.5 25.8C15.3667 25.8333 15.2333 25.8833 15.1 25.95C13.8 26.2833 12.5167 26.5167 11.25 26.65C9.98333 26.7833 8.8 26.85 7.7 26.85H7.65ZM18.4 11.95C18.4333 11.9167 18.5 11.9 18.6 11.9C18.7333 11.8667 18.8333 11.8333 18.9 11.8L20 11.7C20.0333 11.7 20.0667 11.6833 20.1 11.65C20.1333 11.6167 20.1667 11.6 20.2 11.6C20.2333 11.5667 20.2833 11.55 20.35 11.55C20.5167 11.4167 20.6 11.4 20.6 11.5C20.6 11.5667 20.6667 11.55 20.8 11.45C20.8333 11.4167 20.8833 11.4 20.95 11.4C21.0167 11.3333 21.0667 11.3 21.1 11.3C21.1667 11.2667 21.2167 11.2333 21.25 11.2C21.3167 11.1667 21.35 11.15 21.35 11.15C21.35 11.1167 21.3833 11.1 21.45 11.1H21.5C21.5667 11.1 21.6833 11.05 21.85 10.95C22.0167 10.85 22.1 10.8 22.1 10.8C22.1333 10.8 22.1667 10.7667 22.2 10.7C22.2667 10.6333 22.3167 10.6 22.35 10.6C22.3833 10.5667 22.4333 10.55 22.5 10.55C22.5667 10.5167 22.6 10.4833 22.6 10.45C22.6667 10.4167 22.7333 10.3833 22.8 10.35C22.8667 10.3167 22.9167 10.3 22.95 10.3C22.9833 10.2667 23.05 10.2167 23.15 10.15C23.2833 10.0833 23.35 10.0333 23.35 10C23.4167 9.93333 23.4833 9.88333 23.55 9.85C23.65 9.81667 23.7167 9.78333 23.75 9.75C23.85 9.71667 24.0833 9.55 24.45 9.25C24.8167 8.91667 25.1333 8.53333 25.4 8.1C25.4667 8.03333 25.3167 8.11667 24.95 8.35C24.6167 8.55 24.4333 8.66667 24.4 8.7C24.3667 8.7 24.3 8.75 24.2 8.85C24.1 8.91667 24.0333 8.95 24 8.95L23.9 9.05H23.75L23.7 9.1C23.7 9.1 23.6333 9.13333 23.5 9.2C23.4667 9.2 23.4 9.23333 23.3 9.3C23.2 9.36667 23.1333 9.4 23.1 9.4C23.0667 9.4 23.0333 9.41667 23 9.45C22.9667 9.45 22.9333 9.45 22.9 9.45C22.7667 9.55 22.5667 9.65 22.3 9.75C22.0667 9.85 21.9 9.9 21.8 9.9H21.75C21.6833 9.9 21.6167 9.93333 21.55 10L21.5 10.05L21.25 10.1C21.1833 10.1333 21.1 10.1667 21 10.2C20.9 10.2333 20.8167 10.25 20.75 10.25C20.7167 10.2833 20.7 10.3 20.7 10.3C20.7 10.2667 20.7 10.25 20.7 10.25C20.6333 10.3167 20.55 10.35 20.45 10.35C20.4167 10.35 20.4 10.35 20.4 10.35C20.4 10.3167 20.3833 10.3 20.35 10.3C20.3167 10.3 20.25 10.35 20.15 10.45H19.9C19.9 10.4833 19.8667 10.5 19.8 10.5H19.75C19.7167 10.5 19.6667 10.5167 19.6 10.55C19.5333 10.5833 19.4833 10.6 19.45 10.6C19.4167 10.6 19.4 10.6167 19.4 10.65C19.4 10.65 19.3833 10.65 19.35 10.65C19.35 10.6167 19.3333 10.6 19.3 10.6H19.25L18.95 10.7H18.8C18.7 10.7 18.5833 10.6833 18.45 10.65C18.35 10.6167 18.2333 10.6167 18.1 10.65C18.0667 10.65 18.05 10.6667 18.05 10.7C18.05 10.7 18.0333 10.7 18 10.7H17.9C17.9 10.7 17.8833 10.7 17.85 10.7C17.85 10.7 17.8333 10.7167 17.8 10.75C17.8 10.7167 17.7833 10.7 17.75 10.7H17.45C17.45 10.6667 17.4333 10.65 17.4 10.65C17.3667 10.65 17.3333 10.6667 17.3 10.7C17.2667 10.7 17.2333 10.7 17.2 10.7C17 10.7 16.85 10.6333 16.75 10.5C16.65 10.3667 16.4667 10.3333 16.2 10.4C16.2 10.3667 16.1833 10.35 16.15 10.35C16.1167 10.3167 16.1 10.2833 16.1 10.25H16.05C15.9833 10.3167 15.95 10.3667 15.95 10.4C15.9167 10.4333 15.9167 10.4833 15.95 10.55C16.0167 10.5833 16.0333 10.6333 16 10.7C16.0333 10.7333 16.05 10.7833 16.05 10.85C16.0833 10.8833 16.1167 10.9 16.15 10.9C16.15 11 16.2 11.1 16.3 11.2C16.3 11.2333 16.3167 11.2667 16.35 11.3C16.4167 11.3333 16.4333 11.35 16.4 11.35C16.4333 11.3833 16.4667 11.4 16.5 11.4C16.5333 11.4 16.55 11.4333 16.55 11.5L16.7 11.65H16.75C17.05 11.7833 17.35 11.8833 17.65 11.95C17.9833 11.9833 18.2333 11.9833 18.4 11.95ZM41.1668 28.6L40.7168 28.45C40.6835 28.55 40.6001 28.5833 40.4668 28.55C40.3668 28.55 40.2835 28.5167 40.2168 28.45C40.0501 28.1833 39.8668 28.0667 39.6668 28.1C39.4668 28.1667 39.2001 28.1333 38.8668 28H38.8168C38.7168 28 38.6001 28.0167 38.4668 28.05C38.3668 28.1167 38.2668 28.1333 38.1668 28.1L37.8168 27.8C37.8168 27.8333 37.7835 27.85 37.7168 27.85C37.6168 27.85 37.5168 27.8333 37.4168 27.8C37.3168 27.7667 37.2835 27.7333 37.3168 27.7L36.4668 27.25L36.3668 27.3L35.8168 26.7C35.7835 26.7333 35.7501 26.75 35.7168 26.75C35.6501 26.75 35.5835 26.7 35.5168 26.6C35.4501 26.5333 35.4001 26.5 35.3668 26.5C35.1668 26.3333 34.9335 26.1667 34.6668 26C34.4335 25.8667 34.2001 25.7167 33.9668 25.55C33.9335 25.5167 33.9168 25.45 33.9168 25.35C33.9168 25.2833 33.8835 25.2333 33.8168 25.2C33.7168 25.1 33.6001 25 33.4668 24.9C33.3335 24.8 33.2501 24.6833 33.2168 24.55L33.0168 24.6C32.8168 24.2333 32.5835 23.9 32.3168 23.6C32.0501 23.3 31.9335 22.9 31.9668 22.4H31.8668L31.2168 22.15V22C31.1835 22 31.1335 22.0167 31.0668 22.05C31.0001 22.05 30.9168 22.0333 30.8168 22C30.5835 21.9 30.3668 21.7833 30.1668 21.65C29.9668 21.4833 29.8168 21.2833 29.7168 21.05C29.6835 20.95 29.6335 20.9 29.5668 20.9C29.5335 20.9 29.5001 20.8833 29.4668 20.85C29.4001 20.6833 29.3001 20.5333 29.1668 20.4C29.0335 20.2667 28.9835 20.1 29.0168 19.9L29.1668 18.65C29.4335 18.35 29.6335 18.2 29.7668 18.2C29.9001 18.2 29.9668 18.35 29.9668 18.65L29.6668 19.15L29.7168 19.75C29.7835 19.8167 29.8835 19.85 30.0168 19.85C30.1501 19.85 30.2501 19.8333 30.3168 19.8L30.2668 20.1L30.4668 20.45L30.5168 20.35L30.8168 20.45L31.0668 20.8C31.1335 20.6667 31.2001 20.6667 31.2668 20.8C31.3335 20.9 31.3668 20.95 31.3668 20.95L31.6168 20.75C31.5835 20.5833 31.5501 20.4167 31.5168 20.25C31.4835 20.05 31.4668 19.8667 31.4668 19.7C31.4668 19.4667 31.4835 19.3 31.5168 19.2C31.6168 18.8333 31.6501 18.55 31.6168 18.35C31.6168 18.35 31.6835 18.2333 31.8168 18C31.9501 17.7333 32.0835 17.5667 32.2168 17.5L32.6168 17.25L32.7168 17.4C32.6835 17.4333 32.6168 17.5333 32.5168 17.7C32.4168 17.8667 32.3335 17.9833 32.2668 18.05C32.0001 18.6167 31.9001 19.1833 31.9668 19.75C31.9668 19.7833 31.9668 19.8333 31.9668 19.9C32.0001 19.9333 32.0001 20 31.9668 20.1V20.8C32.0335 20.8333 32.0668 20.9667 32.0668 21.2C32.0668 21.4 32.1001 21.4833 32.1668 21.45C32.3335 21.4167 32.4668 21.4667 32.5668 21.6C32.7001 21.7 32.8001 21.65 32.8668 21.45L33.2168 21.85H33.7168C33.6835 21.9167 33.7668 21.9833 33.9668 22.05C34.2001 22.0833 34.4335 22.1 34.6668 22.1C34.9001 22.1 35.0168 22.1 35.0168 22.1L35.3168 22.35C35.3168 22.3167 35.3668 22.35 35.4668 22.45H35.5168C35.6168 22.45 35.7168 22.4167 35.8168 22.35C35.9501 22.2833 36.0501 22.25 36.1168 22.25C36.2835 22.2833 36.4501 22.35 36.6168 22.45C36.8168 22.55 36.9668 22.55 37.0668 22.45L37.4668 22.6L37.9168 22.35C37.9835 22.4167 38.1168 22.4833 38.3168 22.55C38.3835 22.5833 38.4835 22.6 38.6168 22.6C38.9168 22.6 39.1335 22.5333 39.2668 22.4L39.4668 22.65C39.9335 22.6167 40.4001 22.6167 40.8668 22.65C41.3668 22.65 41.8335 22.65 42.2668 22.65C42.6335 22.65 42.9835 22.65 43.3168 22.65C43.6835 22.6167 44.0335 22.5833 44.3668 22.55C44.4668 22.55 44.5501 22.55 44.6168 22.55C44.6835 22.5167 44.7335 22.5 44.7668 22.5C45.0001 22.5 45.2668 22.4333 45.5668 22.3C45.8668 22.1667 46.1168 22.1 46.3168 22.1C46.3835 22.1 46.5335 22.05 46.7668 21.95C47.0335 21.8167 47.1168 21.9 47.0168 22.2L46.5168 22.45L46.3668 22.4C46.3335 22.4333 46.1835 22.5167 45.9168 22.65C45.6835 22.75 45.5501 22.7667 45.5168 22.7L44.4668 22.85C44.3335 22.8833 44.1335 22.9167 43.8668 22.95C43.6001 22.9833 43.4668 22.9833 43.4668 22.95L43.0168 23.05C43.0168 23.0167 42.9835 23 42.9168 23C42.7835 23 42.5835 23.05 42.3168 23.15C42.0835 23.25 41.9501 23.2833 41.9168 23.25C41.8835 23.1833 41.7168 23.1833 41.4168 23.25C41.1501 23.2833 40.8835 23.3 40.6168 23.3C40.2168 23.3 40.0001 23.2333 39.9668 23.1L39.5668 23.25C39.6335 23.1833 39.6001 23.15 39.4668 23.15C39.3668 23.1167 39.2835 23.1167 39.2168 23.15L39.1668 23.4C39.1001 23.4333 39.0335 23.4333 38.9668 23.4C38.9001 23.3667 38.8335 23.3333 38.7668 23.3C38.5668 23.2 38.2501 23.15 37.8168 23.15C37.3835 23.15 36.9668 23.1333 36.5668 23.1C36.1668 23.0667 35.9168 22.9833 35.8168 22.85L35.4168 23.05C35.2835 23.05 35.0835 23.0333 34.8168 23C34.5835 22.9333 34.4001 22.8833 34.2668 22.85C34.0335 22.7833 33.7668 22.7167 33.4668 22.65C33.2001 22.5833 32.9335 22.5667 32.6668 22.6L32.9168 23V23.1C33.1501 23.2333 33.3335 23.45 33.4668 23.75C33.6335 24.0167 33.8835 24.1167 34.2168 24.05L34.3668 24.7L34.7668 24.95C34.8001 24.9167 34.8335 24.9 34.8668 24.9C34.9668 24.9 35.1335 24.9667 35.3668 25.1C35.6001 25.2333 35.7835 25.3333 35.9168 25.4L36.0668 25.3L36.3168 25.75C36.3501 25.7167 36.3835 25.7 36.4168 25.7C36.5168 25.7 36.6335 25.7333 36.7668 25.8C36.9001 25.8667 36.9835 25.8833 37.0168 25.85L37.3668 25.95L37.7168 25.85C37.8501 26.05 37.9335 26.2 37.9668 26.3C38.0001 26.4 38.0501 26.4667 38.1168 26.5C38.2835 26.5667 38.2835 26.6167 38.1168 26.65C37.9835 26.6833 37.9168 26.7333 37.9168 26.8L37.9668 26.9H38.4168C38.4168 26.8 38.5335 26.7167 38.7668 26.65C39.0335 26.6167 39.3001 26.6 39.5668 26.6C39.9668 26.6 40.2001 26.6333 40.2668 26.7C40.4001 26.7667 40.4335 26.7667 40.3668 26.7L40.8168 26.65L41.1168 26.9C41.1835 26.8 41.2501 26.75 41.3168 26.75C41.4168 26.75 41.5001 26.7667 41.5668 26.8C41.6668 26.8667 41.7168 26.9 41.7168 26.9C41.7835 26.9333 41.8501 26.8667 41.9168 26.7C42.0168 26.5667 42.1335 26.5167 42.2668 26.55L42.4668 26.6C42.7001 26.6 42.9335 26.5667 43.1668 26.5C43.4335 26.4333 43.5835 26.5 43.6168 26.7L43.9668 26.45L44.2168 26.5L44.1168 26.9C44.1168 27.0333 44.1335 27.1 44.1668 27.1C44.2335 27.1 44.3168 26.9833 44.4168 26.75C44.5501 26.55 44.6168 26.5333 44.6168 26.7L44.9668 26.3C45.0668 26.3667 45.2001 26.4 45.3668 26.4C45.6335 26.4 45.8835 26.3 46.1168 26.1C46.3501 25.9333 46.6335 25.8167 46.9668 25.75L47.0168 25.85C47.0835 25.8167 47.1501 25.7833 47.2168 25.75C47.3168 25.75 47.3668 25.7833 47.3668 25.85L47.9168 25.8C48.0501 25.7 48.2668 25.5833 48.5668 25.45C48.9001 25.3167 49.1335 25.2167 49.2668 25.15L49.3168 24.95C49.3168 24.95 49.4001 24.95 49.5668 24.95C49.7668 24.9167 49.8835 24.8833 49.9168 24.85V24.8C49.9168 24.7333 49.9168 24.6333 49.9168 24.5C49.9168 24.3333 49.9835 24.2667 50.1168 24.3L50.3668 24.45C50.6668 24.35 50.8668 24.2167 50.9668 24.05C51.1001 23.85 51.3001 23.6667 51.5668 23.5C51.6668 23.4333 51.7501 23.35 51.8168 23.25C51.9168 23.15 52.0335 23.0833 52.1668 23.05C52.2001 23.05 52.2501 23.1 52.3168 23.2C52.4168 23.3 52.5168 23.2833 52.6168 23.15L52.6668 22.65L53.1168 22.5L53.3668 22.15C53.3668 22.15 53.3668 22.1667 53.3668 22.2C53.4001 22.2 53.4335 22.2 53.4668 22.2C53.6001 22.2 53.7501 22.0667 53.9168 21.8C54.0835 21.5333 54.1168 21.35 54.0168 21.25L54.5168 20.7C54.4835 20.5 54.5501 20.25 54.7168 19.95C54.9168 19.65 55.0168 19.2833 55.0168 18.85C55.0168 18.5833 54.9335 18.2667 54.7668 17.9C54.6001 17.5333 54.2668 17.1333 53.7668 16.7L53.5168 16.55C53.1168 16.2833 52.7501 16.0833 52.4168 15.95C52.1168 15.7833 51.7168 15.6167 51.2168 15.45C51.2168 15.45 51.1668 15.4167 51.0668 15.35L49.6668 14.95C49.5335 14.85 49.2335 14.7667 48.7668 14.7C48.3001 14.6333 47.9835 14.5833 47.8168 14.55C47.7501 14.5167 47.6668 14.4667 47.5668 14.4C47.5001 14.3333 47.4335 14.35 47.3668 14.45L46.9168 14.2C46.8501 14.2333 46.7668 14.25 46.6668 14.25C46.6001 14.25 46.5335 14.2333 46.4668 14.2C46.4335 14.1667 46.3335 14.15 46.1668 14.15C45.9335 14.1167 45.5501 14.0167 45.0168 13.85C44.5168 13.6833 44.2335 13.6333 44.1668 13.7L42.8668 13.05L42.7168 13.1L42.2668 12.85C42.3668 12.9833 42.3001 13.0167 42.0668 12.95C41.8335 12.85 41.5668 12.7333 41.2668 12.6C40.9668 12.4333 40.7335 12.3333 40.5668 12.3C40.0001 12.0667 39.4835 11.7333 39.0168 11.3C38.5835 10.8667 38.3668 10.3333 38.3668 9.7C38.3668 9.13333 38.4001 8.73333 38.4668 8.5C38.5335 8.26667 38.6168 8.06667 38.7168 7.9C38.8501 7.73333 38.9668 7.48333 39.0668 7.15C39.1335 7.05 39.2168 6.95 39.3168 6.85C39.4501 6.71667 39.5335 6.58333 39.5668 6.45L39.9668 6.2C40.0001 6.03333 40.0835 5.86667 40.2168 5.7C40.3835 5.53333 40.5335 5.41667 40.6668 5.35C41.1001 5.15 41.5835 4.81667 42.1168 4.35C42.6835 3.85 43.2335 3.48333 43.7668 3.25C43.9001 3.18333 44.0168 3.13333 44.1168 3.1C44.2168 3.03333 44.3335 2.98333 44.4668 2.95L44.5168 3.05C44.8168 2.95 45.3168 2.8 46.0168 2.6C46.7168 2.36667 47.4835 2.13333 48.3168 1.9C49.1835 1.66667 49.9835 1.46667 50.7168 1.3C51.4835 1.13333 52.0835 1.05 52.5168 1.05C52.8168 1.05 52.9835 1.1 53.0168 1.2L53.6168 0.849999C53.6501 0.883332 53.7168 0.916665 53.8168 0.949998C53.9168 0.949998 53.9835 0.933332 54.0168 0.899999L54.5168 1.05C54.6501 0.983332 54.7501 0.949998 54.8168 0.949998C55.0168 0.949998 55.2335 1.01667 55.4668 1.15C55.7335 1.25 55.9335 1.28333 56.0668 1.25C56.2335 1.18333 56.3501 1.16667 56.4168 1.2C56.5168 1.2 56.6168 1.2 56.7168 1.2H56.9168C57.0168 1.2 57.1168 1.21667 57.2168 1.25C57.3501 1.25 57.4835 1.31667 57.6168 1.45L57.8668 1.5C57.9668 1.6 58.0168 1.71667 58.0168 1.85C58.0835 1.98333 58.2835 2.06667 58.6168 2.1C58.9501 2.13333 59.1668 2.2 59.2668 2.3C59.5335 2.5 59.6835 2.83333 59.7168 3.3C59.7835 3.73333 59.8168 4.13333 59.8168 4.5C59.7835 4.86667 59.6335 5.31667 59.3668 5.85C59.1335 6.35 58.8335 6.75 58.4668 7.05C58.3001 7.18333 58.0501 7.33333 57.7168 7.5C57.3835 7.63333 57.1335 7.75 56.9668 7.85C56.6001 8.08333 56.2001 8.2 55.7668 8.2C55.1335 8.2 54.8168 8.06667 54.8168 7.8C54.8168 7.7 54.9335 7.6 55.1668 7.5C55.3335 7.43333 55.4835 7.36667 55.6168 7.3C55.7835 7.2 55.9335 7.08333 56.0668 6.95C56.2001 6.88333 56.2835 6.85 56.3168 6.85C56.3835 6.81667 56.4335 6.78333 56.4668 6.75C56.5335 6.71667 56.5835 6.68333 56.6168 6.65C56.6501 6.58333 56.7168 6.51667 56.8168 6.45C57.0168 6.28333 57.2668 6.01667 57.5668 5.65C57.9001 5.25 58.1335 4.95 58.2668 4.75C58.3001 4.58333 58.3668 4.36667 58.4668 4.1C58.6001 3.8 58.6668 3.53333 58.6668 3.3C58.6668 3.1 58.6168 2.95 58.5168 2.85C58.4835 2.85 58.4668 2.83333 58.4668 2.8L58.4168 2.7C58.1501 2.13333 57.6168 1.81667 56.8168 1.75C56.0501 1.65 55.4001 1.6 54.8668 1.6C54.8668 1.6 54.8335 1.58333 54.7668 1.55C54.7001 1.51667 54.6668 1.53333 54.6668 1.6L53.5668 1.7L53.4668 1.6L52.4168 1.8L52.3168 1.75L51.2168 2.05C51.2501 1.98333 51.2335 1.96667 51.1668 2C51.1001 2 51.0668 2 51.0668 2L49.9668 2.3L49.9168 2.25L49.4168 2.55C49.4168 2.51667 49.4001 2.48333 49.3668 2.45C49.3335 2.41667 49.3168 2.4 49.3168 2.4C49.2835 2.43333 49.2501 2.48333 49.2168 2.55C49.1835 2.58333 49.1335 2.61667 49.0668 2.65L48.9668 2.6L48.2668 2.85C48.2668 2.88333 48.2001 2.9 48.0668 2.9C47.1668 3.3 46.1835 3.76667 45.1168 4.3C44.0835 4.8 43.2835 5.51667 42.7168 6.45L42.6168 6.35L42.1668 6.75C42.1335 6.78333 42.0835 6.83333 42.0168 6.9C41.9835 6.96667 41.9335 7.08333 41.8668 7.25C41.7668 7.51667 41.6168 7.83333 41.4168 8.2C41.2501 8.56667 41.1668 8.91667 41.1668 9.25C41.1668 9.58333 41.2335 9.9 41.3668 10.2C41.5001 10.4667 41.6001 10.5333 41.6668 10.4L42.1168 10.7L42.2668 11.25L42.3668 11.2L43.0168 11.7H43.1168L43.9168 12.35L44.5168 12.7H44.9168L45.5168 12.9C45.5835 12.9333 45.6335 12.9833 45.6668 13.05C45.7335 13.0833 45.8168 13.05 45.9168 12.95L46.4168 13.3C46.4501 13.2667 46.5001 13.25 46.5668 13.25C46.6335 13.25 46.7001 13.2833 46.7668 13.35C46.8335 13.3833 46.8835 13.4167 46.9168 13.45L47.0168 13.4L48.7668 14.1C48.8335 14.0667 48.9168 14.05 49.0168 14.05C49.1835 14.05 49.3168 14.0833 49.4168 14.15C49.5501 14.1833 49.6835 14.2167 49.8168 14.25C49.8835 14.2833 49.9668 14.3333 50.0668 14.4C50.2001 14.4667 50.2668 14.5167 50.2668 14.55C50.3335 14.5833 50.4001 14.6 50.4668 14.6C50.5668 14.6 50.6501 14.6 50.7168 14.6L51.1668 14.75L51.6168 15L52.0668 15.05C52.0668 15.05 52.2001 15.1167 52.4668 15.25C52.7668 15.35 53.0668 15.45 53.3668 15.55C53.7001 15.65 53.8835 15.7167 53.9168 15.75L54.2168 16.05L54.2668 16L54.6168 16.2C54.9835 16.4333 55.3501 16.8833 55.7168 17.55C56.1168 18.1833 56.3168 18.8833 56.3168 19.65C56.3168 20.15 56.2335 20.65 56.0668 21.15C55.9335 21.6167 55.7668 22 55.5668 22.3C55.0668 22.9667 54.5168 23.5667 53.9168 24.1C53.3501 24.6333 52.8335 25.0833 52.3668 25.45C52.2001 25.55 52.0835 25.6333 52.0168 25.7C51.9501 25.7667 51.8501 25.8 51.7168 25.8C51.6168 25.8333 51.5335 25.8833 51.4668 25.95C51.0001 26.2167 50.4835 26.45 49.9168 26.65C49.3501 26.8833 48.8501 27.1 48.4168 27.3C48.2168 27.3667 48.0501 27.4 47.9168 27.4C47.7835 27.4333 47.6501 27.4667 47.5168 27.5C47.4835 27.5 47.4168 27.5167 47.3168 27.55C47.2501 27.6167 47.2168 27.6333 47.2168 27.6L46.8668 27.85C46.8335 27.8167 46.7835 27.8 46.7168 27.8C46.5835 27.8 46.4335 27.8667 46.2668 28C46.1335 28.1333 46.0001 28.1833 45.8668 28.15H45.8168C45.7168 28.15 45.5835 28.1667 45.4168 28.2C45.2835 28.2667 45.1835 28.2667 45.1168 28.2L44.4668 28.45L44.3668 28.2C44.3335 28.2 44.2835 28.2333 44.2168 28.3C44.1835 28.4 44.1335 28.45 44.0668 28.45C44.0668 28.45 44.0001 28.4167 43.8668 28.35C43.7335 28.2833 43.6335 28.3167 43.5668 28.45L43.0168 28.6C42.9835 28.4667 42.8835 28.4 42.7168 28.4C42.5835 28.4 42.4668 28.45 42.3668 28.55L41.9668 28.35V28.4L41.5668 28.35L41.1668 28.6ZM2.448 53.072C1.856 53.072 1.408 52.968 1.104 52.76C0.8 52.552 0.592 52.304 0.48 52.016C0.368 51.728 0.336 51.4 0.384 51.032L0.432 50.96C0.464 50.912 0.488 50.848 0.504 50.768C0.52 50.688 0.536 50.64 0.552 50.624L0.744 50.672C0.776 50.688 0.8 50.664 0.816 50.6C0.832 50.536 0.824 50.512 0.792 50.528C0.696 50.544 0.648 50.56 0.648 50.576C0.648 50.592 0.632 50.56 0.6 50.48L0.672 50.432L0.648 50.408C0.648 50.376 0.664 50.36 0.696 50.36L0.648 50.288C0.648 50.288 0.712 50.296 0.84 50.312C0.984 50.312 1.04 50.296 1.008 50.264C1.024 50.264 1.016 50.256 0.984 50.24C0.952 50.208 0.936 50.184 0.936 50.168C0.92 50.184 0.912 50.184 0.912 50.168C0.912 50.136 0.856 50.136 0.744 50.168C0.696 50.184 0.672 50.176 0.672 50.144C0.672 50.112 0.672 50.096 0.672 50.096C0.72 50.08 0.768 50.064 0.816 50.048C0.864 50.016 0.896 49.968 0.912 49.904C0.928 49.744 0.944 49.656 0.96 49.64C0.976 49.624 0.992 49.6 1.008 49.568C1.024 49.536 1.048 49.496 1.08 49.448C1.112 49.384 1.136 49.352 1.152 49.352C1.136 49.336 1.128 49.312 1.128 49.28C1.128 49.2 1.184 49.168 1.296 49.184C1.424 49.2 1.464 49.152 1.416 49.04C1.368 48.976 1.392 48.944 1.488 48.944L1.464 48.92C1.528 48.888 1.568 48.872 1.584 48.872C1.616 48.856 1.6 48.824 1.536 48.776L1.632 48.56C1.648 48.528 1.68 48.48 1.728 48.416C1.792 48.336 1.888 48.256 2.016 48.176C2.016 48.176 2.008 48.184 1.992 48.2C1.992 48.2 1.992 48.208 1.992 48.224H2.016C2.064 48.224 2.152 48.176 2.28 48.08C2.264 48.064 2.232 48.056 2.184 48.056C2.152 48.04 2.128 48.024 2.112 48.008C2.096 47.96 2.176 47.856 2.352 47.696C2.528 47.536 2.72 47.384 2.928 47.24C3.136 47.08 3.264 46.984 3.312 46.952C3.552 46.824 3.816 46.72 4.104 46.64C4.408 46.544 4.672 46.52 4.896 46.568C4.944 46.584 5.016 46.648 5.112 46.76C5.224 46.872 5.304 46.904 5.352 46.856C5.496 46.728 5.664 46.6 5.856 46.472C6.048 46.344 6.16 46.288 6.192 46.304C6.272 46.32 6.352 46.352 6.432 46.4C6.512 46.432 6.552 46.528 6.552 46.688C6.552 46.8 6.544 46.896 6.528 46.976C6.512 47.072 6.472 47.152 6.408 47.216C6.344 47.28 6.28 47.352 6.216 47.432C6.152 47.528 6.032 47.68 5.856 47.888C5.696 48.08 5.576 48.2 5.496 48.248C5.448 48.264 5.392 48.312 5.328 48.392C5.28 48.456 5.216 48.52 5.136 48.584C5.072 48.632 4.992 48.672 4.896 48.704C4.816 48.72 4.76 48.736 4.728 48.752C4.696 48.768 4.64 48.776 4.56 48.776C4.496 48.76 4.48 48.728 4.512 48.68C4.528 48.664 4.528 48.648 4.512 48.632C4.512 48.6 4.512 48.576 4.512 48.56C4.528 48.528 4.552 48.504 4.584 48.488C4.616 48.472 4.64 48.448 4.656 48.416C4.672 48.4 4.712 48.344 4.776 48.248C4.856 48.152 4.896 48.096 4.896 48.08C4.88 48.064 4.88 48.048 4.896 48.032C4.912 48 4.92 47.976 4.92 47.96C4.936 47.944 4.944 47.92 4.944 47.888C4.944 47.856 4.96 47.84 4.992 47.84C5.056 47.824 5.088 47.8 5.088 47.768C5.088 47.64 5.096 47.52 5.112 47.408C5.144 47.296 5.136 47.2 5.088 47.12C5.024 46.992 4.904 46.928 4.728 46.928C4.488 46.928 4.208 47.032 3.888 47.24C3.568 47.432 3.352 47.592 3.24 47.72C2.728 48.296 2.312 48.944 1.992 49.664C1.672 50.384 1.544 51.024 1.608 51.584C1.64 51.856 1.752 52.08 1.944 52.256C2.136 52.432 2.352 52.52 2.592 52.52H3C3.048 52.52 3.096 52.52 3.144 52.52C3.208 52.504 3.272 52.488 3.336 52.472C3.432 52.44 3.504 52.424 3.552 52.424C3.632 52.344 3.68 52.344 3.696 52.424C3.824 52.36 3.88 52.336 3.864 52.352C3.848 52.368 3.872 52.368 3.936 52.352C4.256 52.272 4.568 52.136 4.872 51.944C5.176 51.752 5.456 51.56 5.712 51.368C5.76 51.336 5.84 51.288 5.952 51.224C6.064 51.16 6.144 51.112 6.192 51.08C6.224 51.032 6.248 50.992 6.264 50.96C6.296 50.912 6.336 50.88 6.384 50.864C6.416 50.816 6.456 50.768 6.504 50.72C6.552 50.656 6.584 50.616 6.6 50.6C6.68 50.568 6.704 50.544 6.672 50.528C6.64 50.496 6.68 50.456 6.792 50.408C6.824 50.392 6.856 50.384 6.888 50.384C6.92 50.384 6.936 50.4 6.936 50.432C6.936 50.464 6.888 50.552 6.792 50.696C6.728 50.808 6.608 50.952 6.432 51.128L6.192 51.368L5.904 51.512C5.872 51.544 5.856 51.576 5.856 51.608C5.856 51.624 5.84 51.648 5.808 51.68C5.36 52.08 4.848 52.416 4.272 52.688C3.712 52.944 3.104 53.072 2.448 53.072ZM8.61356 53.216C8.26156 53.216 7.94956 53.12 7.67756 52.928C7.42156 52.72 7.29356 52.368 7.29356 51.872C7.29356 51.696 7.32556 51.448 7.38956 51.128C7.45356 50.808 7.55756 50.472 7.70156 50.12C7.78156 49.928 7.86956 49.744 7.96556 49.568C8.07756 49.392 8.18156 49.224 8.27756 49.064C8.29356 49.048 8.34156 49.064 8.42156 49.112C8.51756 49.16 8.57356 49.176 8.58956 49.16C8.60556 49.128 8.58156 49.096 8.51756 49.064C8.46956 49.016 8.45356 48.984 8.46956 48.968C8.50156 48.936 8.52556 48.92 8.54156 48.92C8.57356 48.904 8.59756 48.88 8.61356 48.848C8.62956 48.816 8.63756 48.784 8.63756 48.752C8.63756 48.704 8.61356 48.664 8.56556 48.632C8.53356 48.6 8.54956 48.552 8.61356 48.488C8.69356 48.376 8.78156 48.272 8.87756 48.176C8.98956 48.064 9.08556 47.968 9.16556 47.888C9.19756 47.856 9.23756 47.808 9.28556 47.744C9.33356 47.664 9.36556 47.616 9.38156 47.6L9.42956 47.552C9.44556 47.536 9.46156 47.52 9.47756 47.504C9.47756 47.488 9.47756 47.48 9.47756 47.48C9.49356 47.48 9.50156 47.472 9.50156 47.456C9.50156 47.408 9.45356 47.36 9.35756 47.312C9.26156 47.264 9.21356 47.232 9.21356 47.216C9.21356 47.2 9.20556 47.184 9.18956 47.168C9.17356 47.152 9.15756 47.128 9.14156 47.096C9.15756 47.096 9.17356 47.08 9.18956 47.048C9.22156 47 9.24556 46.976 9.26156 46.976C9.27756 46.976 9.30956 46.992 9.35756 47.024C9.40556 47.04 9.43756 47.048 9.45356 47.048C9.46956 47.048 9.47756 47.04 9.47756 47.024C9.49356 47.008 9.50956 47 9.52556 47C9.55756 47 9.62956 47.024 9.74156 47.072C9.85356 47.104 9.91756 47.12 9.93356 47.12C9.94956 47.12 9.99756 47.08 10.0776 47C10.1576 46.92 10.2056 46.872 10.2216 46.856C10.2536 46.824 10.2776 46.792 10.2936 46.76C10.3096 46.712 10.3496 46.656 10.4136 46.592H10.4376C10.4536 46.576 10.4616 46.56 10.4616 46.544C10.4616 46.528 10.4616 46.52 10.4616 46.52C10.4936 46.488 10.5176 46.464 10.5336 46.448C10.5656 46.416 10.5896 46.392 10.6056 46.376C10.6216 46.36 10.6296 46.352 10.6296 46.352C10.6456 46.352 10.6536 46.352 10.6536 46.352C10.6696 46.32 10.6856 46.296 10.7016 46.28C10.7336 46.264 10.7576 46.248 10.7736 46.232L10.8216 46.136C10.8536 46.104 10.9656 46.032 11.1576 45.92C11.3496 45.808 11.4936 45.752 11.5896 45.752H11.7096C11.7096 45.752 11.7096 45.76 11.7096 45.776C11.7096 45.776 11.7176 45.776 11.7336 45.776C11.7496 45.776 11.7656 45.776 11.7816 45.776C11.7976 45.76 11.8136 45.752 11.8296 45.752C11.8296 45.752 11.8536 45.776 11.9016 45.824C11.9176 45.84 11.9336 45.848 11.9496 45.848C11.9656 45.832 11.9816 45.824 11.9976 45.824C12.0136 45.84 12.0216 45.856 12.0216 45.872C12.0216 45.888 12.0296 45.896 12.0456 45.896C12.0776 45.896 12.0856 45.896 12.0696 45.896C12.0696 45.88 12.0776 45.872 12.0936 45.872C12.1096 45.872 12.1176 45.888 12.1176 45.92C12.1176 45.952 12.1256 45.984 12.1416 46.016C12.1256 46.064 12.1096 46.12 12.0936 46.184C12.0936 46.232 12.0856 46.272 12.0696 46.304C11.9256 46.496 11.8136 46.592 11.7336 46.592C11.7336 46.608 11.7096 46.64 11.6616 46.688C11.6136 46.688 11.5576 46.704 11.4936 46.736C11.4296 46.768 11.3656 46.8 11.3016 46.832V46.904C11.3016 46.968 11.2776 47 11.2296 47C11.1976 46.984 11.1656 47.008 11.1336 47.072V47.096C11.1656 47.144 11.2216 47.168 11.3016 47.168L11.4696 47.192C11.5016 47.192 11.5176 47.184 11.5176 47.168C11.5336 47.152 11.5496 47.144 11.5656 47.144C11.5816 47.144 11.5896 47.152 11.5896 47.168C11.5896 47.168 11.5976 47.168 11.6136 47.168C11.6456 47.168 11.6696 47.16 11.6856 47.144C11.7016 47.128 11.7176 47.12 11.7336 47.12L11.9496 47.144C11.9016 47.064 11.8776 47 11.8776 46.952C11.8776 46.872 11.9496 46.824 12.0936 46.808C12.3176 46.808 12.5096 46.888 12.6696 47.048C12.7016 47.032 12.7416 47.032 12.7896 47.048C12.8376 47.064 12.8856 47.064 12.9336 47.048L13.0536 46.976L13.0776 47C13.1416 46.968 13.1816 46.952 13.1976 46.952C13.2296 46.952 13.2376 46.96 13.2216 46.976C13.2216 46.976 13.2296 46.976 13.2456 46.976C13.2456 46.976 13.2616 46.96 13.2936 46.928C13.3096 46.928 13.3256 46.936 13.3416 46.952C13.3736 46.952 13.3976 46.944 13.4136 46.928L13.4856 46.856H13.7736L13.7976 46.832C13.8296 46.816 13.8696 46.8 13.9176 46.784C13.9816 46.752 14.0376 46.736 14.0856 46.736C14.0856 46.72 14.1016 46.712 14.1336 46.712C14.1656 46.696 14.1896 46.688 14.2056 46.688H14.2536C14.3336 46.688 14.3736 46.712 14.3736 46.76C14.3736 46.808 14.3496 46.848 14.3016 46.88C14.2856 46.896 14.2616 46.904 14.2296 46.904C14.1976 46.888 14.1656 46.888 14.1336 46.904C14.0696 46.968 14.0216 47 13.9896 47C13.9736 47 13.9656 47 13.9656 47C13.9656 46.984 13.9576 46.976 13.9416 46.976C13.9256 46.976 13.8936 47 13.8456 47.048L13.6776 47.072H13.6536C13.6216 47.072 13.6056 47.088 13.6056 47.12C13.5416 47.12 13.4776 47.128 13.4136 47.144C13.3496 47.144 13.2856 47.152 13.2216 47.168L13.1976 47.192C13.1816 47.192 13.1656 47.2 13.1496 47.216C13.1336 47.216 13.1096 47.216 13.0776 47.216C13.0456 47.232 12.9576 47.24 12.8136 47.24C12.9096 47.368 12.9736 47.488 13.0056 47.6C13.0376 47.68 13.0616 47.808 13.0776 47.984C13.1096 48.144 13.1176 48.264 13.1016 48.344C13.1016 48.392 13.0856 48.408 13.0536 48.392C13.0216 48.36 13.0056 48.36 13.0056 48.392C13.0056 48.44 13.0216 48.472 13.0536 48.488C13.1016 48.488 13.1256 48.528 13.1256 48.608C13.1256 48.656 13.1176 48.72 13.1016 48.8C13.0856 48.864 13.0696 48.936 13.0536 49.016C13.0376 49.112 13.0136 49.216 12.9816 49.328C12.9656 49.424 12.9256 49.52 12.8616 49.616L12.7896 49.736V49.88C12.7896 50.008 12.7496 50.096 12.6696 50.144C12.6056 50.192 12.5576 50.248 12.5256 50.312C12.4936 50.408 12.4696 50.472 12.4536 50.504C12.4536 50.536 12.4216 50.6 12.3576 50.696C12.1496 51.016 11.9016 51.32 11.6136 51.608C11.3256 51.896 11.0456 52.16 10.7736 52.4C10.5336 52.608 10.2056 52.8 9.78956 52.976C9.38956 53.136 8.99756 53.216 8.61356 53.216ZM8.85356 52.784C8.90156 52.784 8.99756 52.776 9.14156 52.76C9.28556 52.728 9.43756 52.656 9.59756 52.544C9.62956 52.528 9.66156 52.536 9.69356 52.568C9.72556 52.6 9.75756 52.608 9.78956 52.592C9.86956 52.56 9.90156 52.536 9.88556 52.52C9.86956 52.504 9.89356 52.488 9.95756 52.472H9.98156C10.0776 52.472 10.1176 52.464 10.1016 52.448C10.1016 52.416 10.1096 52.376 10.1256 52.328C10.1256 52.28 10.1496 52.24 10.1976 52.208C10.2456 52.176 10.2856 52.152 10.3176 52.136C10.4936 51.992 10.7096 51.752 10.9656 51.416C11.2216 51.064 11.4776 50.712 11.7336 50.36C11.7496 50.328 11.7736 50.32 11.8056 50.336C11.8376 50.352 11.8616 50.352 11.8776 50.336C11.8936 50.32 11.9016 50.272 11.9016 50.192C11.9016 50.144 11.9256 50.072 11.9736 49.976C12.0216 49.864 12.0696 49.776 12.1176 49.712C12.1336 49.664 12.1656 49.576 12.2136 49.448C12.2616 49.304 12.3016 49.176 12.3336 49.064C12.3816 48.936 12.3896 48.872 12.3576 48.872C12.3256 48.856 12.3096 48.84 12.3096 48.824C12.3096 48.792 12.3576 48.76 12.4536 48.728C12.5496 48.696 12.5416 48.672 12.4296 48.656C12.3976 48.64 12.4056 48.608 12.4536 48.56C12.5016 48.512 12.4776 48.48 12.3816 48.464C12.3016 48.448 12.2696 48.424 12.2856 48.392C12.3176 48.36 12.3416 48.336 12.3576 48.32C12.4056 48.272 12.4296 48.224 12.4296 48.176C12.4296 48.032 12.3896 47.888 12.3096 47.744C12.2456 47.6 12.1736 47.472 12.0936 47.36C11.9976 47.424 11.9496 47.456 11.9496 47.456C11.9336 47.456 11.9256 47.456 11.9256 47.456C11.9256 47.44 11.9096 47.432 11.8776 47.432C11.8616 47.432 11.8536 47.432 11.8536 47.432C11.8536 47.416 11.8456 47.408 11.8296 47.408C11.8136 47.408 11.7976 47.416 11.7816 47.432C11.7656 47.448 11.7576 47.456 11.7576 47.456C11.7416 47.472 11.7096 47.48 11.6616 47.48C11.6296 47.48 11.6056 47.48 11.5896 47.48C11.5736 47.48 11.5576 47.472 11.5416 47.456C11.5416 47.44 11.5336 47.432 11.5176 47.432C11.5016 47.432 11.4776 47.448 11.4456 47.48C11.4296 47.512 11.4056 47.528 11.3736 47.528C11.3576 47.528 11.3496 47.52 11.3496 47.504C11.3496 47.488 11.3336 47.48 11.3016 47.48C11.2856 47.48 11.2696 47.488 11.2536 47.504C11.2536 47.52 11.2456 47.528 11.2296 47.528C11.2136 47.528 11.1816 47.504 11.1336 47.456H11.1096C11.1096 47.552 11.0856 47.6 11.0376 47.6C11.0216 47.6 10.9976 47.584 10.9656 47.552C10.7896 47.664 10.4936 47.928 10.0776 48.344C9.66156 48.744 9.29356 49.208 8.97356 49.736C8.90956 49.864 8.82956 50.016 8.73356 50.192C8.65356 50.368 8.58156 50.568 8.51756 50.792C8.50156 50.888 8.45356 50.96 8.37356 51.008C8.30956 51.056 8.26156 51.112 8.22956 51.176C8.21356 51.24 8.22156 51.28 8.25356 51.296C8.28556 51.312 8.30956 51.336 8.32556 51.368C8.32556 51.432 8.30956 51.52 8.27756 51.632C8.26156 51.744 8.25356 51.848 8.25356 51.944C8.25356 52.248 8.30956 52.464 8.42156 52.592C8.54956 52.72 8.69356 52.784 8.85356 52.784ZM15.9898 53.096C15.9738 53.096 15.9498 53.08 15.9178 53.048C15.8858 53.032 15.8618 53.024 15.8458 53.024C15.7818 53.04 15.7258 53.048 15.6778 53.048C15.6298 53.048 15.5818 53.048 15.5338 53.048C15.5178 53.048 15.5018 53.04 15.4858 53.024C15.4858 53.008 15.4778 53 15.4618 53C15.4458 53 15.4378 53 15.4378 53C15.4538 53.016 15.4538 53.024 15.4378 53.024C15.4378 53.024 15.4218 53.016 15.3898 53C15.3578 52.984 15.3338 52.976 15.3178 52.976L15.2938 52.952C15.2618 52.952 15.2378 52.944 15.2218 52.928C15.2218 52.912 15.2138 52.904 15.1978 52.904L15.1738 52.928L15.1498 52.904C15.1178 52.888 15.0698 52.872 15.0058 52.856C14.9578 52.824 14.9178 52.8 14.8858 52.784C14.8538 52.784 14.8138 52.76 14.7658 52.712H14.7178C14.6858 52.664 14.6298 52.632 14.5498 52.616C14.5498 52.6 14.5418 52.584 14.5258 52.568H14.5018C14.4698 52.52 14.4458 52.504 14.4298 52.52C14.4138 52.488 14.3898 52.464 14.3578 52.448C14.3418 52.416 14.3178 52.392 14.2858 52.376C14.2858 52.312 14.2698 52.28 14.2378 52.28C14.2378 52.248 14.2058 52.2 14.1418 52.136C14.0938 52.072 14.0618 52.016 14.0458 51.968L14.0218 51.944C13.9578 51.88 13.9098 51.776 13.8778 51.632C13.8618 51.568 13.8458 51.544 13.8298 51.56C13.8298 51.576 13.8218 51.536 13.8058 51.44C13.8058 51.424 13.8058 51.4 13.8058 51.368C13.8218 51.32 13.8218 51.288 13.8058 51.272C13.8058 51.256 13.7978 51.248 13.7818 51.248C13.7818 51.232 13.7818 51.216 13.7818 51.2C13.7658 51.184 13.7578 51.176 13.7578 51.176C13.7738 51.16 13.7818 51.152 13.7818 51.152C13.7818 51.12 13.7738 51.104 13.7578 51.104C13.7578 51.088 13.7578 51.072 13.7578 51.056V51.008C13.7578 50.928 13.7738 50.872 13.8058 50.84C13.8058 50.808 13.8138 50.784 13.8298 50.768C13.8458 50.752 13.8538 50.736 13.8538 50.72C13.8538 50.688 13.8698 50.672 13.9018 50.672C13.9338 50.672 13.9498 50.664 13.9498 50.648C13.9498 50.616 13.9578 50.6 13.9738 50.6C14.0058 50.584 14.0298 50.568 14.0458 50.552C14.0458 50.536 14.0538 50.52 14.0698 50.504C14.1018 50.488 14.1178 50.472 14.1178 50.456C14.1978 50.408 14.2858 50.384 14.3818 50.384C14.5738 50.384 14.6698 50.432 14.6698 50.528C14.6698 50.56 14.6218 50.616 14.5258 50.696C14.5098 50.744 14.5018 50.776 14.5018 50.792C14.5178 50.792 14.5098 50.808 14.4778 50.84C14.4938 50.888 14.5018 50.952 14.5018 51.032C14.4858 51.032 14.4778 51.056 14.4778 51.104C14.4938 51.136 14.5018 51.152 14.5018 51.152C14.5018 51.168 14.5098 51.216 14.5258 51.296C14.5578 51.376 14.5818 51.424 14.5978 51.44C14.5978 51.44 14.6138 51.48 14.6458 51.56C14.6778 51.624 14.6938 51.664 14.6938 51.68V51.728C14.7258 51.776 14.7418 51.808 14.7418 51.824C14.7578 51.824 14.8218 51.856 14.9338 51.92C14.9498 51.936 14.9818 51.944 15.0298 51.944C15.1098 51.992 15.1658 52.032 15.1978 52.064C15.2458 52.096 15.3578 52.128 15.5338 52.16C15.5978 52.176 15.6218 52.192 15.6058 52.208C15.6058 52.208 15.6378 52.208 15.7018 52.208C15.7018 52.208 15.7018 52.216 15.7018 52.232C15.7018 52.232 15.7098 52.232 15.7258 52.232C15.7578 52.216 15.7898 52.216 15.8218 52.232C15.8538 52.232 15.8858 52.224 15.9178 52.208H16.0138C16.1258 52.208 16.2458 52.192 16.3738 52.16L16.7338 52.064C16.8458 52.048 16.9498 52.016 17.0458 51.968C17.1418 51.92 17.2298 51.872 17.3098 51.824C17.3258 51.824 17.3738 51.8 17.4538 51.752C17.5338 51.688 17.6298 51.624 17.7418 51.56C17.7258 51.512 17.7178 51.448 17.7178 51.368C17.7178 51.32 17.7418 51.296 17.7898 51.296C17.8378 51.28 17.8698 51.256 17.8858 51.224C17.8378 51.192 17.7738 51.176 17.6938 51.176C17.6298 51.176 17.6058 51.152 17.6218 51.104C17.5578 50.752 17.4618 50.432 17.3338 50.144C17.2218 49.856 17.0858 49.536 16.9258 49.184C16.9098 49.136 16.8778 49.056 16.8298 48.944C16.7818 48.832 16.7498 48.744 16.7338 48.68C16.7338 48.664 16.7498 48.664 16.7818 48.68C16.8138 48.68 16.8218 48.672 16.8058 48.656C16.7898 48.576 16.7738 48.496 16.7578 48.416C16.7578 48.336 16.7498 48.264 16.7338 48.2C16.7178 48.168 16.7338 48.144 16.7818 48.128C16.8298 48.112 16.8458 48.088 16.8298 48.056C16.8138 48.024 16.7818 48.016 16.7338 48.032C16.6858 48.048 16.6538 48.04 16.6378 48.008L16.5658 47.72C16.5658 47.64 16.5498 47.592 16.5178 47.576C16.5018 47.56 16.5178 47.528 16.5658 47.48C16.5978 47.464 16.6138 47.44 16.6138 47.408C16.6138 47.36 16.6218 47.328 16.6378 47.312C16.7178 47.264 16.7498 47.208 16.7338 47.144C16.7178 47.064 16.7338 46.992 16.7818 46.928C16.8298 46.864 16.8698 46.808 16.9018 46.76C16.9338 46.696 16.9818 46.656 17.0458 46.64C17.0938 46.608 17.1098 46.616 17.0938 46.664C17.0778 46.712 17.0778 46.736 17.0938 46.736C17.1738 46.736 17.2058 46.696 17.1898 46.616C17.1738 46.536 17.1978 46.464 17.2618 46.4C17.3738 46.304 17.5418 46.224 17.7658 46.16C17.9898 46.096 18.1578 46.056 18.2698 46.04C18.3018 46.04 18.3258 46.04 18.3418 46.04C18.3738 46.024 18.3978 46.016 18.4138 46.016C18.4938 46.016 18.5738 46.024 18.6538 46.04C18.7498 46.056 18.8378 46.072 18.9178 46.088C18.9818 46.104 19.0778 46.168 19.2058 46.28C19.3338 46.376 19.4298 46.4 19.4938 46.352C19.6378 46.224 19.7898 46.112 19.9498 46.016C20.1258 45.92 20.2378 45.88 20.2858 45.896C20.4138 45.912 20.5258 45.952 20.6218 46.016C20.7178 46.064 20.7498 46.224 20.7178 46.496C20.7018 46.592 20.6618 46.672 20.5978 46.736C20.5498 46.784 20.5018 46.848 20.4538 46.928L20.2858 47.168C20.2218 47.28 20.1418 47.392 20.0458 47.504C19.9658 47.616 19.8938 47.688 19.8298 47.72C19.7658 47.752 19.7018 47.808 19.6378 47.888C19.5898 47.952 19.5258 48.016 19.4458 48.08C19.3658 48.144 19.2778 48.192 19.1818 48.224C19.1018 48.24 19.0458 48.256 19.0138 48.272C18.9658 48.288 18.8938 48.296 18.7978 48.296C18.7178 48.28 18.6938 48.248 18.7258 48.2C18.7578 48.184 18.7658 48.168 18.7498 48.152C18.7338 48.12 18.7258 48.096 18.7258 48.08C18.7258 48.048 18.7418 48.024 18.7738 48.008C18.8218 47.992 18.8538 47.968 18.8698 47.936C18.8858 47.92 18.9258 47.864 18.9898 47.768C19.0698 47.672 19.1018 47.616 19.0858 47.6C19.0858 47.552 19.1018 47.512 19.1338 47.48C19.1338 47.448 19.1338 47.424 19.1338 47.408C19.1338 47.376 19.1498 47.352 19.1818 47.336C19.2458 47.32 19.2778 47.296 19.2778 47.264V46.976C19.2778 46.912 19.2698 46.848 19.2538 46.784C19.2538 46.72 19.2378 46.664 19.2058 46.616C19.0778 46.456 18.8698 46.376 18.5818 46.376C18.3738 46.376 18.1738 46.424 17.9818 46.52C17.7738 46.616 17.5978 46.776 17.4538 47C17.3418 47.16 17.2858 47.328 17.2858 47.504C17.2858 47.632 17.3098 47.76 17.3578 47.888C17.4218 48.016 17.4778 48.136 17.5258 48.248C17.5738 48.36 17.6378 48.496 17.7178 48.656C17.8138 48.816 17.8858 48.944 17.9338 49.04C18.0138 49.168 18.1018 49.32 18.1978 49.496C18.2938 49.656 18.3658 49.808 18.4138 49.952C18.4298 49.968 18.4138 49.984 18.3658 50C18.3338 50 18.3258 50.016 18.3418 50.048C18.3578 50.08 18.3818 50.096 18.4138 50.096C18.4458 50.096 18.4698 50.112 18.4858 50.144C18.5178 50.192 18.5178 50.232 18.4858 50.264C18.4698 50.296 18.4698 50.344 18.4858 50.408C18.4858 50.424 18.5018 50.44 18.5338 50.456C18.5658 50.472 18.5818 50.488 18.5818 50.504C18.6618 50.712 18.7018 50.88 18.7018 51.008C18.8458 50.928 19.0058 50.832 19.1818 50.72C19.3578 50.608 19.4538 50.504 19.4698 50.408C19.4858 50.376 19.5098 50.368 19.5418 50.384C19.5898 50.384 19.6138 50.4 19.6138 50.432C19.5978 50.544 19.4618 50.696 19.2058 50.888C18.9658 51.08 18.7818 51.216 18.6538 51.296C18.6698 51.312 18.6618 51.352 18.6298 51.416C18.5978 51.48 18.5898 51.528 18.6058 51.56C18.6058 51.576 18.5978 51.6 18.5818 51.632C18.5658 51.648 18.5498 51.672 18.5338 51.704C18.5338 51.768 18.5178 51.816 18.4858 51.848V51.896L18.4138 51.944C18.3978 51.96 18.3738 52 18.3418 52.064C18.3258 52.112 18.3018 52.152 18.2698 52.184H18.1978C18.1658 52.216 18.1498 52.256 18.1498 52.304C18.1178 52.352 18.0458 52.408 17.9338 52.472C17.8218 52.52 17.7498 52.568 17.7178 52.616C17.7178 52.616 17.7098 52.616 17.6938 52.616C17.6778 52.616 17.6538 52.632 17.6218 52.664H17.5498C17.5338 52.664 17.5178 52.68 17.5018 52.712C17.4858 52.728 17.4698 52.744 17.4538 52.76C17.4058 52.76 17.3818 52.776 17.3818 52.808C17.3178 52.808 17.2698 52.816 17.2378 52.832L16.9978 52.88C16.9338 52.944 16.8778 52.976 16.8298 52.976L16.8058 52.952C16.7738 52.984 16.7498 53 16.7338 53H16.6378C16.6218 53 16.6058 53.008 16.5898 53.024C16.5738 53.04 16.5578 53.048 16.5418 53.048H16.4938C16.4778 53.048 16.4618 53.048 16.4458 53.048C16.4458 53.064 16.4298 53.072 16.3978 53.072C16.3498 53.072 16.2778 53.072 16.1818 53.072C16.1018 53.072 16.0378 53.08 15.9898 53.096ZM15.7498 52.88C15.7498 52.88 15.7658 52.88 15.7978 52.88C15.8458 52.864 15.8778 52.856 15.8938 52.856C15.9738 52.856 16.0458 52.864 16.1098 52.88C16.1738 52.88 16.2378 52.88 16.3018 52.88C16.3338 52.88 16.3498 52.864 16.3498 52.832H16.3978C16.4458 52.784 16.4698 52.776 16.4698 52.808C16.4858 52.84 16.5098 52.84 16.5418 52.808C16.5738 52.808 16.5898 52.8 16.5898 52.784L16.6858 52.736C16.7018 52.736 16.7098 52.736 16.7098 52.736C16.7098 52.72 16.7178 52.712 16.7338 52.712H16.7818C16.8138 52.712 16.8458 52.696 16.8778 52.664C16.9098 52.632 16.9258 52.616 16.9258 52.616C16.9258 52.616 16.9498 52.592 16.9978 52.544C16.9978 52.544 17.0058 52.544 17.0218 52.544C17.0378 52.528 17.0538 52.52 17.0698 52.52C17.1018 52.488 17.1338 52.472 17.1658 52.472C17.1658 52.456 17.1818 52.44 17.2138 52.424C17.2458 52.392 17.2618 52.376 17.2618 52.376C17.2778 52.36 17.2938 52.352 17.3098 52.352C17.3418 52.336 17.3578 52.32 17.3578 52.304C17.3898 52.304 17.4538 52.248 17.5498 52.136C17.6458 52.024 17.7098 51.888 17.7418 51.728C17.7418 51.696 17.6938 51.72 17.5978 51.8C17.5018 51.864 17.4538 51.896 17.4538 51.896C17.4058 51.912 17.3578 51.944 17.3098 51.992C17.2618 52.024 17.2218 52.04 17.1898 52.04C17.1738 52.04 17.1498 52.056 17.1178 52.088C17.1018 52.104 17.0858 52.112 17.0698 52.112C17.0538 52.112 17.0458 52.12 17.0458 52.136C17.0458 52.136 17.0298 52.128 16.9978 52.112C16.9818 52.144 16.9338 52.176 16.8538 52.208C16.7738 52.24 16.7178 52.256 16.6858 52.256H16.6138L16.5898 52.28C16.5898 52.28 16.5818 52.288 16.5658 52.304C16.5498 52.304 16.5338 52.304 16.5178 52.304L16.3498 52.328H16.3258C16.3098 52.328 16.2938 52.336 16.2778 52.352C16.2138 52.352 16.1418 52.36 16.0618 52.376C15.9818 52.392 15.9338 52.4 15.9178 52.4H15.8938C15.8938 52.384 15.8858 52.376 15.8698 52.376V52.4H15.7498C15.7018 52.4 15.6458 52.392 15.5818 52.376C15.5338 52.344 15.4938 52.328 15.4618 52.328C15.4458 52.328 15.4378 52.336 15.4378 52.352C15.4378 52.352 15.4298 52.352 15.4138 52.352H15.3658C15.3498 52.352 15.3418 52.344 15.3418 52.328H15.2218C15.2218 52.28 15.2058 52.272 15.1738 52.304H15.1498C15.0858 52.304 15.0298 52.28 14.9818 52.232C14.9498 52.184 14.8938 52.16 14.8138 52.16L14.7418 52.088C14.7418 52.104 14.7338 52.12 14.7178 52.136C14.7178 52.136 14.7178 52.144 14.7178 52.16C14.7178 52.16 14.7258 52.176 14.7418 52.208C14.7738 52.224 14.7898 52.24 14.7898 52.256L14.8378 52.352L14.9338 52.472L14.9818 52.52C14.9978 52.536 15.0058 52.544 15.0058 52.544C15.0218 52.544 15.0378 52.56 15.0538 52.592C15.0858 52.592 15.1018 52.616 15.1018 52.664C15.3738 52.808 15.5898 52.88 15.7498 52.88ZM20.4409 53.072C20.3449 53.072 20.2969 53.016 20.2969 52.904C20.2969 52.824 20.3209 52.728 20.3689 52.616C20.4969 52.344 20.6489 51.96 20.8249 51.464C21.0009 50.968 21.2169 50.544 21.4729 50.192L22.4089 48.104C22.4089 48.104 22.3929 48.096 22.3609 48.08C22.3289 48.048 22.3129 48.016 22.3129 47.984C22.2169 47.92 22.1129 47.832 22.0009 47.72C21.9049 47.592 21.8969 47.464 21.9769 47.336C22.0089 47.304 22.0329 47.288 22.0489 47.288C22.0649 47.288 22.0729 47.288 22.0729 47.288V47.24C22.0729 47.176 22.0969 47.136 22.1449 47.12C22.2089 47.104 22.2489 47.08 22.2649 47.048C22.2969 46.824 22.4809 46.656 22.8169 46.544C23.1689 46.432 23.4809 46.376 23.7529 46.376C24.0249 46.376 24.1609 46.416 24.1609 46.496C24.1609 46.544 24.1129 46.6 24.0169 46.664C23.9849 46.696 23.9049 46.768 23.7769 46.88C23.6649 46.992 23.5609 47.128 23.4649 47.288L23.2969 47.576L23.1289 47.792C22.8729 48.256 22.6649 48.648 22.5049 48.968C22.3449 49.288 22.1529 49.696 21.9289 50.192C21.8809 50.288 21.8569 50.368 21.8569 50.432C21.8569 50.512 21.8889 50.552 21.9529 50.552C21.9849 50.552 22.0169 50.544 22.0489 50.528C22.0969 50.496 22.1449 50.472 22.1929 50.456C22.3209 50.376 22.4249 50.304 22.5049 50.24C22.6009 50.16 22.7049 50.08 22.8169 50C22.8649 49.952 22.9049 49.952 22.9369 50C22.9689 50.032 22.9689 50.08 22.9369 50.144C22.8729 50.272 22.8249 50.352 22.7929 50.384C22.7769 50.4 22.7529 50.416 22.7209 50.432C22.6889 50.448 22.6169 50.52 22.5049 50.648L22.4089 50.84C22.3769 50.872 22.3369 50.936 22.2889 51.032C22.2569 51.112 22.2409 51.16 22.2409 51.176C22.2409 51.208 22.2249 51.224 22.1929 51.224C22.1609 51.208 22.1129 51.232 22.0489 51.296C22.0329 51.312 22.0249 51.344 22.0249 51.392C22.0409 51.44 22.0329 51.48 22.0009 51.512C21.9849 51.56 21.9609 51.6 21.9289 51.632C21.8969 51.648 21.8809 51.664 21.8809 51.68C21.8649 51.744 21.8329 51.784 21.7849 51.8C21.7529 51.8 21.7209 51.816 21.6889 51.848C21.6729 51.848 21.6649 51.864 21.6649 51.896C21.6649 52.024 21.6489 52.08 21.6169 52.064C21.5849 52.048 21.5529 52.064 21.5209 52.112C21.4889 52.176 21.4489 52.208 21.4009 52.208C21.3049 52.24 21.2649 52.264 21.2809 52.28C21.2969 52.296 21.3209 52.312 21.3529 52.328C21.3849 52.328 21.3609 52.352 21.2809 52.4C21.2329 52.416 21.1929 52.464 21.1609 52.544C21.1289 52.608 21.0969 52.656 21.0649 52.688C21.0329 52.72 20.9929 52.744 20.9449 52.76C20.8969 52.776 20.8569 52.808 20.8249 52.856C20.6809 53 20.5529 53.072 20.4409 53.072ZM24.7129 52.544C24.6169 52.544 24.5369 52.512 24.4729 52.448H24.4489C24.3049 52.448 24.2809 52.384 24.3769 52.256C24.3929 52.16 24.4249 52.088 24.4729 52.04C24.5209 51.976 24.5769 51.912 24.6409 51.848C24.6569 51.848 24.6649 51.848 24.6649 51.848C24.6649 51.832 24.6649 51.824 24.6649 51.824C24.7129 51.712 24.7769 51.624 24.8569 51.56L24.9529 51.416C25.0169 51.352 25.0809 51.256 25.1449 51.128C25.2089 51.048 25.2489 50.992 25.2649 50.96C25.2809 50.912 25.3129 50.832 25.3609 50.72C25.3609 50.688 25.3849 50.64 25.4329 50.576C25.4809 50.512 25.5129 50.472 25.5289 50.456L25.6729 50.096C25.6889 50.016 25.7129 49.952 25.7449 49.904C25.7769 49.856 25.8009 49.792 25.8169 49.712L25.9609 49.352C25.9929 49.24 26.0329 49.16 26.0809 49.112H26.1049C26.0889 49.064 26.1049 49 26.1529 48.92C26.1849 48.808 26.2089 48.712 26.2249 48.632C26.2569 48.536 26.2729 48.488 26.2729 48.488L26.3449 48.056C26.3289 47.768 26.2089 47.624 25.9849 47.624C25.9049 47.624 25.8009 47.648 25.6729 47.696C25.4009 47.776 25.1129 47.944 24.8089 48.2C24.7929 48.216 24.7689 48.24 24.7369 48.272C24.7209 48.304 24.6969 48.336 24.6649 48.368C24.6489 48.384 24.6329 48.392 24.6169 48.392C24.6169 48.376 24.6009 48.384 24.5689 48.416C24.5529 48.432 24.5449 48.456 24.5449 48.488C24.5449 48.504 24.5369 48.52 24.5209 48.536C24.5049 48.552 24.4809 48.568 24.4489 48.584C24.4329 48.584 24.4089 48.6 24.3769 48.632C24.3609 48.632 24.3449 48.648 24.3289 48.68C24.3289 48.696 24.3209 48.712 24.3049 48.728C24.2409 48.792 24.1609 48.872 24.0649 48.968C23.9689 49.048 23.8649 49.128 23.7529 49.208L23.6569 49.28C23.6409 49.296 23.6169 49.328 23.5849 49.376C23.5689 49.408 23.5449 49.44 23.5129 49.472C23.4489 49.536 23.3929 49.608 23.3449 49.688C23.2969 49.768 23.2329 49.816 23.1529 49.832H23.1049C23.0249 49.832 23.0249 49.76 23.1049 49.616C23.1209 49.584 23.1609 49.528 23.2249 49.448C23.3049 49.368 23.3529 49.32 23.3689 49.304L23.4649 49.208C23.4969 49.176 23.5129 49.152 23.5129 49.136C23.5129 49.12 23.5209 49.104 23.5369 49.088L23.7769 48.872L23.8729 48.752L24.0409 48.632L24.5209 48.176C24.5529 48.144 24.6009 48.088 24.6649 48.008C24.7449 47.928 24.8009 47.88 24.8329 47.864C24.9129 47.784 25.0009 47.72 25.0969 47.672C25.1929 47.608 25.2889 47.536 25.3849 47.456C25.4649 47.392 25.5529 47.336 25.6489 47.288C25.7129 47.224 25.7609 47.184 25.7929 47.168C25.9369 47.088 26.0169 47.04 26.0329 47.024C26.0489 47.008 26.1049 46.984 26.2009 46.952C26.3449 46.904 26.5129 46.88 26.7049 46.88C26.8329 46.88 26.9129 46.888 26.9449 46.904C27.0249 46.936 27.1049 46.968 27.1849 47C27.2649 47.032 27.3049 47.112 27.3049 47.24C27.3049 47.32 27.3129 47.368 27.3289 47.384C27.3449 47.384 27.3449 47.432 27.3289 47.528C27.3289 47.592 27.3209 47.696 27.3049 47.84C27.3049 47.984 27.2889 48.096 27.2569 48.176C27.2409 48.256 27.2009 48.368 27.1369 48.512C27.0889 48.64 27.0489 48.752 27.0169 48.848L26.9449 49.04L26.7289 49.424C26.7129 49.44 26.6569 49.48 26.5609 49.544C26.4649 49.592 26.4009 49.632 26.3689 49.664C26.3529 49.68 26.3769 49.712 26.4409 49.76C26.5049 49.808 26.4969 49.888 26.4169 50C26.3849 50.064 26.3449 50.104 26.2969 50.12C26.2489 50.12 26.2009 50.16 26.1529 50.24C25.9609 50.512 25.8089 50.704 25.6969 50.816L25.4329 51.176L25.3609 51.248C25.4249 51.248 25.4809 51.288 25.5289 51.368C25.5449 51.416 25.5769 51.456 25.6249 51.488C25.6729 51.52 25.6969 51.584 25.6969 51.68C25.6969 51.792 25.6329 51.952 25.5049 52.16C25.3769 52.368 25.2249 52.472 25.0489 52.472C24.9849 52.472 24.9289 52.488 24.8809 52.52C24.8329 52.536 24.7769 52.544 24.7129 52.544ZM31.1689 53.12C31.0409 53.12 30.9529 53.112 30.9049 53.096C30.7449 53.064 30.6009 53.016 30.4729 52.952C30.3609 52.888 30.2649 52.768 30.1849 52.592C30.1529 52.512 30.1129 52.408 30.0649 52.28C30.0169 52.152 29.9769 52.032 29.9449 51.92C29.9289 51.84 29.9209 51.744 29.9209 51.632C29.9209 51.568 29.9129 51.52 29.8969 51.488C29.8969 51.44 29.8969 51.384 29.8969 51.32C29.8969 51.256 29.8889 51.184 29.8729 51.104C29.8569 51.024 29.8569 50.952 29.8729 50.888V50.432C29.8729 50.352 29.8729 50.28 29.8729 50.216C29.8729 50.136 29.8809 50.08 29.8969 50.048C29.9289 49.904 29.9449 49.832 29.9449 49.832C29.9449 49.816 29.9529 49.736 29.9689 49.592C29.9849 49.4 29.9849 49.2 29.9689 48.992C29.9689 48.784 29.9769 48.616 29.9929 48.488C30.0409 48.008 29.9529 47.768 29.7289 47.768C29.6329 47.768 29.5049 47.808 29.3449 47.888C29.3289 47.92 29.2969 47.944 29.2489 47.96C29.2009 47.96 29.1449 47.984 29.0809 48.032L28.9849 48.104C28.9849 48.12 28.9609 48.128 28.9129 48.128C28.8809 48.112 28.8729 48.12 28.8889 48.152C28.8889 48.28 28.8489 48.312 28.7689 48.248L28.5289 48.44L28.4569 48.536L28.4329 48.56C28.3689 48.624 28.3129 48.656 28.2649 48.656L28.1689 48.728C28.1689 48.744 28.1529 48.776 28.1209 48.824C28.1049 48.856 28.0729 48.864 28.0249 48.848L27.9049 48.968C27.8409 49.064 27.7849 49.12 27.7369 49.136C27.7049 49.152 27.6649 49.168 27.6169 49.184L27.4009 49.424L27.3049 49.448C27.3049 49.512 27.2329 49.608 27.0889 49.736C26.9609 49.864 26.8809 49.952 26.8489 50C26.8009 50.048 26.7529 50.072 26.7049 50.072C26.6729 50.072 26.6569 50.056 26.6569 50.024C26.6569 49.96 26.6889 49.896 26.7529 49.832C26.8169 49.768 26.9129 49.648 27.0409 49.472C27.1849 49.296 27.2649 49.208 27.2809 49.208C27.3609 49.128 27.4169 49.048 27.4489 48.968C27.4809 48.888 27.5369 48.816 27.6169 48.752C27.6169 48.784 27.6329 48.8 27.6649 48.8C27.6969 48.8 27.7289 48.76 27.7609 48.68C27.8089 48.584 27.8409 48.544 27.8569 48.56L28.2889 48.2C28.2729 48.184 28.3129 48.152 28.4089 48.104C28.4729 48.072 28.5129 48.056 28.5289 48.056C28.5449 48.056 28.5849 48.008 28.6489 47.912L28.8169 47.792C28.8329 47.76 28.8489 47.76 28.8649 47.792C28.8809 47.824 28.9049 47.84 28.9369 47.84L28.9849 47.672C29.0169 47.608 29.0729 47.56 29.1529 47.528C29.2329 47.496 29.3129 47.456 29.3929 47.408C29.4729 47.328 29.5529 47.256 29.6329 47.192C29.7129 47.128 29.7769 47.104 29.8249 47.12H29.9209C30.1289 47.04 30.3129 47 30.4729 47C30.7289 47 30.9289 47.096 31.0729 47.288C31.1369 47.368 31.1769 47.456 31.1929 47.552C31.2089 47.568 31.2089 47.592 31.1929 47.624C31.1929 47.64 31.2009 47.664 31.2169 47.696C31.2329 47.728 31.2649 47.768 31.3129 47.816C31.3609 47.848 31.3849 47.888 31.3849 47.936V47.984C31.3849 48.032 31.3529 48.088 31.2889 48.152C31.3689 48.216 31.4009 48.256 31.3849 48.272C31.3689 48.272 31.3529 48.296 31.3369 48.344L31.3129 48.68C31.2969 48.792 31.2649 48.88 31.2169 48.944C31.1849 48.992 31.1529 49.08 31.1209 49.208C31.1849 49.304 31.1849 49.36 31.1209 49.376C31.1209 49.392 31.1049 49.4 31.0729 49.4L31.0489 49.496C31.0809 49.56 31.0969 49.592 31.0969 49.592L31.0249 49.736C31.0249 49.736 31.0489 49.736 31.0969 49.736C31.0649 49.768 31.0329 49.832 31.0009 49.928C30.9849 50.008 30.9689 50.072 30.9529 50.12C30.9369 50.2 30.9049 50.24 30.8569 50.24C30.8089 50.24 30.7929 50.28 30.8089 50.36C30.8249 50.376 30.8329 50.432 30.8329 50.528C30.8329 50.608 30.8169 50.648 30.7849 50.648L30.7369 50.936C30.7369 50.952 30.7369 50.968 30.7369 50.984C30.7529 51 30.7609 51.016 30.7609 51.032C30.7609 51.112 30.7449 51.192 30.7129 51.272C30.6969 51.336 30.6729 51.408 30.6409 51.488C30.6249 51.568 30.6089 51.656 30.5929 51.752C30.5929 51.832 30.5929 51.912 30.5929 51.992C30.5929 52.056 30.5929 52.128 30.5929 52.208C30.6089 52.272 30.6249 52.336 30.6409 52.4C30.6569 52.416 30.6809 52.464 30.7129 52.544C30.7609 52.624 30.7849 52.672 30.7849 52.688C30.8169 52.72 30.8409 52.736 30.8569 52.736C30.8889 52.752 30.9369 52.76 31.0009 52.76C31.0809 52.744 31.1369 52.752 31.1689 52.784C31.3129 52.8 31.4969 52.728 31.7209 52.568C31.9609 52.392 32.1769 52.2 32.3689 51.992C32.4169 51.944 32.4649 51.92 32.5129 51.92C32.5609 51.92 32.5929 51.944 32.6089 51.992C32.6249 52.04 32.6089 52.104 32.5609 52.184C32.2889 52.552 32.0329 52.8 31.7929 52.928C31.5689 53.056 31.3609 53.12 31.1689 53.12ZM37.4259 45.512C37.3779 45.512 37.3299 45.496 37.2819 45.464C37.2499 45.432 37.2019 45.392 37.1379 45.344C37.1059 45.328 37.0659 45.312 37.0179 45.296C36.9859 45.264 36.9699 45.216 36.9699 45.152C36.9539 45.136 36.9219 45.128 36.8739 45.128C36.7939 45.128 36.7539 45.072 36.7539 44.96C36.7539 44.832 36.8179 44.744 36.9459 44.696L37.0659 44.6V44.624L37.1619 44.504H37.2099C37.3059 44.504 37.3699 44.456 37.4019 44.36C37.4499 44.264 37.5459 44.2 37.6899 44.168C37.7859 44.136 37.8659 44.144 37.9299 44.192C37.9939 44.24 38.0739 44.264 38.1699 44.264C38.2659 44.264 38.3699 44.232 38.4819 44.168L38.8419 44.096C38.8899 44.096 38.9139 44.112 38.9139 44.144C38.9139 44.176 38.8659 44.216 38.7699 44.264C38.6899 44.312 38.6339 44.352 38.6019 44.384L38.5779 44.408L38.5539 44.456L38.4579 44.576C38.3619 44.688 38.2499 44.824 38.1219 44.984C38.0099 45.128 37.8899 45.248 37.7619 45.344C37.6179 45.456 37.5059 45.512 37.4259 45.512ZM33.7779 53.072C33.6819 53.072 33.6339 53.016 33.6339 52.904C33.6339 52.824 33.6579 52.728 33.7059 52.616C33.8339 52.344 33.9779 51.96 34.1379 51.464C34.3139 50.968 34.5299 50.544 34.7859 50.192C34.9619 49.84 35.1219 49.496 35.2659 49.16C35.4259 48.808 35.5779 48.456 35.7219 48.104C35.7219 48.104 35.7059 48.096 35.6739 48.08C35.6579 48.048 35.6499 48.016 35.6499 47.984C35.5539 47.92 35.4499 47.832 35.3379 47.72C35.2419 47.592 35.2339 47.464 35.3139 47.336C35.3459 47.304 35.3699 47.288 35.3859 47.288C35.4019 47.288 35.4099 47.288 35.4099 47.288C35.4099 47.272 35.4019 47.264 35.3859 47.264C35.3859 47.248 35.3859 47.24 35.3859 47.24C35.3859 47.176 35.4179 47.136 35.4819 47.12C35.5459 47.104 35.5779 47.08 35.5779 47.048C35.6099 46.824 35.8019 46.656 36.1539 46.544C36.5059 46.432 36.8179 46.376 37.0899 46.376C37.3619 46.376 37.4979 46.416 37.4979 46.496C37.4979 46.528 37.4499 46.584 37.3539 46.664C37.3059 46.696 37.2259 46.768 37.1139 46.88C37.0019 46.992 36.8979 47.128 36.8019 47.288L36.6099 47.576C36.5939 47.608 36.5699 47.648 36.5379 47.696C36.5219 47.728 36.4979 47.76 36.4659 47.792C36.2099 48.256 36.0019 48.648 35.8419 48.968C35.6819 49.288 35.4899 49.696 35.2659 50.192C35.2339 50.288 35.2179 50.352 35.2179 50.384C35.2179 50.496 35.2819 50.552 35.4099 50.552C35.5059 50.552 35.6019 50.528 35.6979 50.48L35.9379 50.384C36.3219 50.032 36.7219 49.736 37.1379 49.496C37.1539 49.496 37.1619 49.496 37.1619 49.496C37.1779 49.48 37.1939 49.472 37.2099 49.472C37.2579 49.472 37.2899 49.504 37.3059 49.568C37.3219 49.616 37.3059 49.656 37.2579 49.688C36.7939 49.944 36.3619 50.272 35.9619 50.672C35.9459 50.704 35.9299 50.736 35.9139 50.768C35.8979 50.8 35.8739 50.832 35.8419 50.864C35.8099 50.896 35.7619 50.952 35.6979 51.032C35.6499 51.112 35.6259 51.16 35.6259 51.176C35.6099 51.224 35.5859 51.24 35.5539 51.224C35.5379 51.208 35.4899 51.232 35.4099 51.296C35.3939 51.312 35.3779 51.344 35.3619 51.392C35.3619 51.44 35.3539 51.48 35.3379 51.512C35.3219 51.56 35.2899 51.6 35.2419 51.632C35.2099 51.648 35.1939 51.664 35.1939 51.68C35.1779 51.744 35.1459 51.784 35.0979 51.8C35.0659 51.8 35.0339 51.816 35.0019 51.848C34.9859 51.864 34.9859 51.888 35.0019 51.92C35.0179 51.952 35.0099 51.984 34.9779 52.016C34.9619 52.064 34.9459 52.088 34.9299 52.088C34.9139 52.072 34.8899 52.08 34.8579 52.112C34.7939 52.176 34.7459 52.208 34.7139 52.208C34.6179 52.24 34.5779 52.264 34.5939 52.28C34.6259 52.296 34.6499 52.312 34.6659 52.328C34.6979 52.328 34.6739 52.352 34.5939 52.4C34.5619 52.416 34.5299 52.464 34.4979 52.544C34.4659 52.608 34.4339 52.656 34.4019 52.688C34.3539 52.72 34.3059 52.744 34.2579 52.76C34.2259 52.776 34.1859 52.808 34.1379 52.856C33.9939 53 33.8739 53.072 33.7779 53.072ZM38.6018 53.072C38.5058 53.072 38.4578 53.016 38.4578 52.904C38.4578 52.824 38.4818 52.728 38.5298 52.616C38.6578 52.344 38.8018 51.96 38.9618 51.464C39.1378 50.968 39.3538 50.544 39.6098 50.192L40.8098 47.72C40.7138 47.72 40.6178 47.744 40.5218 47.792C40.4418 47.84 40.4018 47.88 40.4018 47.912C40.4018 47.976 40.3138 48.04 40.1378 48.104C39.9618 48.168 39.8658 48.208 39.8498 48.224C39.6098 48.288 39.3858 48.36 39.1777 48.44C39.0178 48.616 38.8578 48.792 38.6978 48.968C38.5538 49.144 38.4178 49.32 38.2898 49.496C38.2738 49.512 38.2578 49.52 38.2418 49.52C38.0978 49.68 37.9778 49.8 37.8818 49.88C37.7858 49.96 37.6818 50.032 37.5697 50.096C37.5057 50.144 37.4417 50.16 37.3777 50.144C37.2977 50.112 37.2897 50.08 37.3537 50.048C37.4337 50.016 37.5617 49.904 37.7378 49.712C37.9138 49.52 38.0498 49.376 38.1458 49.28C38.2258 49.232 38.2498 49.232 38.2178 49.28C38.2018 49.328 38.2258 49.32 38.2898 49.256L38.8898 48.488L38.9138 48.464C38.8338 48.416 38.7938 48.288 38.7938 48.08C38.7938 47.92 38.8258 47.792 38.8898 47.696C38.8898 47.68 38.9058 47.672 38.9378 47.672L39.4418 47.528C39.4898 47.528 39.5218 47.52 39.5378 47.504C39.5698 47.472 39.6018 47.432 39.6338 47.384C39.6818 47.32 39.7378 47.24 39.8018 47.144L40.0898 46.76L40.2818 46.496C40.2818 46.448 40.3138 46.392 40.3778 46.328C40.4578 46.248 40.5218 46.192 40.5698 46.16C40.6338 46.064 40.6738 45.992 40.6898 45.944C40.7218 45.88 40.7698 45.8 40.8338 45.704C40.8338 45.688 40.8578 45.68 40.9058 45.68C40.9538 45.664 40.9778 45.648 40.9778 45.632C40.9938 45.472 41.0178 45.4 41.0498 45.416C41.0978 45.416 41.1217 45.392 41.1217 45.344C41.1217 45.296 41.1538 45.256 41.2178 45.224L41.3378 45.08C41.3378 45.064 41.3618 45.032 41.4098 44.984V44.96C41.4098 44.928 41.4098 44.888 41.4098 44.84C41.4098 44.792 41.4258 44.744 41.4578 44.696C41.4898 44.664 41.5138 44.648 41.5298 44.648C41.5458 44.648 41.5538 44.648 41.5538 44.648C41.5538 44.632 41.5458 44.624 41.5298 44.624C41.5298 44.608 41.5298 44.6 41.5298 44.6C41.5298 44.536 41.5618 44.496 41.6258 44.48C41.6898 44.464 41.7218 44.44 41.7218 44.408C41.7538 44.184 41.9458 44.016 42.2978 43.904C42.6498 43.792 42.9618 43.736 43.2338 43.736C43.5058 43.736 43.6418 43.776 43.6418 43.856C43.6418 43.888 43.5938 43.944 43.4978 44.024C43.4498 44.04 43.3698 44.112 43.2578 44.24C43.1458 44.352 43.0418 44.488 42.9458 44.648L42.7538 44.936C42.7378 44.968 42.7138 45.008 42.6818 45.056C42.6658 45.088 42.6418 45.12 42.6098 45.152C42.4978 45.344 42.3458 45.616 42.1538 45.968C41.9778 46.304 41.7858 46.68 41.5778 47.096L42.2018 47.024C42.2498 47.024 42.2658 47.032 42.2498 47.048C42.2498 47.064 42.2738 47.064 42.3218 47.048C42.4018 47.048 42.4578 47.04 42.4898 47.024C42.5218 46.992 42.5778 46.968 42.6578 46.952C42.7858 46.936 42.9298 46.928 43.0898 46.928C43.2658 46.912 43.4018 46.904 43.4978 46.904C43.5618 46.904 43.6418 46.904 43.7378 46.904C43.8338 46.904 43.9058 46.912 43.9538 46.928C43.9858 46.928 43.9938 46.944 43.9778 46.976C43.9778 46.992 43.9858 47 44.0018 47C44.0338 47 44.0578 46.992 44.0738 46.976C44.1058 46.96 44.1378 46.952 44.1698 46.952C44.1858 46.936 44.2098 46.936 44.2418 46.952C44.2898 46.952 44.3218 46.952 44.3378 46.952L44.5778 47.024C44.6738 47.04 44.7218 47.096 44.7218 47.192C44.7378 47.288 44.6978 47.32 44.6018 47.288C44.5378 47.256 44.4818 47.24 44.4338 47.24H43.8338C43.7218 47.24 43.6178 47.24 43.5218 47.24C43.4258 47.24 43.3298 47.248 43.2338 47.264C43.2018 47.28 43.1858 47.264 43.1858 47.216C43.2018 47.168 43.1938 47.144 43.1618 47.144C43.1458 47.144 43.1218 47.168 43.0898 47.216C43.0578 47.248 43.0338 47.264 43.0178 47.264L42.8978 47.336C42.6418 47.4 42.3698 47.472 42.0818 47.552C41.7938 47.616 41.5138 47.688 41.2418 47.768C41.0018 48.264 40.7698 48.736 40.5458 49.184C40.3378 49.616 40.1778 49.952 40.0658 50.192C40.0338 50.288 40.0178 50.344 40.0178 50.36C40.0178 50.488 40.0898 50.552 40.2338 50.552C40.3298 50.552 40.4258 50.528 40.5218 50.48L40.7617 50.384C41.1458 50.032 41.5458 49.736 41.9618 49.496C41.9778 49.496 41.9858 49.496 41.9858 49.496C42.0018 49.48 42.0178 49.472 42.0338 49.472C42.0818 49.472 42.1138 49.504 42.1298 49.568C42.1458 49.616 42.1298 49.656 42.0818 49.688C41.6178 49.944 41.1858 50.272 40.7858 50.672C40.7697 50.704 40.7538 50.736 40.7378 50.768C40.7218 50.8 40.6978 50.832 40.6658 50.864C40.6338 50.896 40.5858 50.952 40.5218 51.032C40.4738 51.112 40.4498 51.16 40.4498 51.176C40.4338 51.224 40.4098 51.24 40.3778 51.224C40.3618 51.208 40.3138 51.232 40.2338 51.296C40.2178 51.312 40.2018 51.344 40.1858 51.392C40.1858 51.44 40.1778 51.48 40.1618 51.512C40.1298 51.56 40.0978 51.6 40.0658 51.632C40.0338 51.648 40.0178 51.664 40.0178 51.68C40.0018 51.744 39.9698 51.784 39.9218 51.8C39.8898 51.8 39.8578 51.816 39.8258 51.848C39.8098 51.848 39.8018 51.856 39.8018 51.872C39.8018 52.016 39.7858 52.08 39.7538 52.064C39.7218 52.048 39.6978 52.064 39.6818 52.112C39.6178 52.176 39.5698 52.208 39.5378 52.208C39.4418 52.24 39.4018 52.264 39.4178 52.28C39.4498 52.296 39.4738 52.312 39.4898 52.328C39.5218 52.328 39.4978 52.352 39.4178 52.4C39.3858 52.416 39.3538 52.464 39.3218 52.544C39.2898 52.608 39.2578 52.656 39.2258 52.688C39.1778 52.72 39.1298 52.744 39.0818 52.76C39.0338 52.776 38.9938 52.808 38.9618 52.856C38.8178 53 38.6978 53.072 38.6018 53.072ZM39.9698 47.432C40.0338 47.416 40.0898 47.4 40.1378 47.384C40.2018 47.368 40.2658 47.344 40.3298 47.312L41.0498 47.192C41.2418 46.808 41.4098 46.464 41.5538 46.16C41.6978 45.84 41.8018 45.608 41.8658 45.464C41.8658 45.464 41.8498 45.456 41.8178 45.44C41.8018 45.408 41.7938 45.376 41.7938 45.344C41.7618 45.328 41.7218 45.304 41.6738 45.272C41.6418 45.24 41.6098 45.216 41.5778 45.2L41.3618 45.416L41.0978 45.776C41.0978 45.792 41.0738 45.808 41.0258 45.824C40.9938 45.824 40.9778 45.832 40.9778 45.848C40.9778 45.896 40.9538 45.944 40.9058 45.992C40.8738 46.04 40.8418 46.056 40.8098 46.04L40.7138 46.28C40.7138 46.328 40.6898 46.368 40.6418 46.4L40.4738 46.616C40.4738 46.632 40.4658 46.648 40.4498 46.664C40.4498 46.664 40.4498 46.68 40.4498 46.712C40.4338 46.744 40.4098 46.784 40.3778 46.832C40.3458 46.88 40.3058 46.928 40.2578 46.976C40.2418 46.976 40.2338 46.984 40.2338 47C40.2338 47 40.2258 47 40.2098 47L40.1378 47.144C40.0738 47.176 40.0338 47.192 40.0178 47.192L39.9938 47.24C39.9938 47.336 39.9858 47.4 39.9698 47.432ZM46.8713 45.512C46.8233 45.512 46.7753 45.496 46.7273 45.464C46.6953 45.432 46.6473 45.392 46.5833 45.344C46.5513 45.328 46.5113 45.312 46.4633 45.296C46.4313 45.264 46.4153 45.216 46.4153 45.152C46.3993 45.136 46.3673 45.128 46.3193 45.128C46.2393 45.128 46.1992 45.072 46.1992 44.96C46.1992 44.832 46.2632 44.744 46.3913 44.696L46.5113 44.6V44.624L46.6073 44.504H46.6553C46.7513 44.504 46.8153 44.456 46.8473 44.36C46.8953 44.264 46.9913 44.2 47.1353 44.168C47.2313 44.136 47.3113 44.144 47.3753 44.192C47.4393 44.24 47.5193 44.264 47.6153 44.264C47.7113 44.264 47.8153 44.232 47.9273 44.168L48.2873 44.096C48.3353 44.096 48.3593 44.112 48.3593 44.144C48.3593 44.176 48.3113 44.216 48.2153 44.264C48.1353 44.312 48.0793 44.352 48.0473 44.384L48.0233 44.408L47.9993 44.456L47.9033 44.576C47.8073 44.688 47.6953 44.824 47.5673 44.984C47.4553 45.128 47.3353 45.248 47.2073 45.344C47.0633 45.456 46.9513 45.512 46.8713 45.512ZM43.2233 53.072C43.1273 53.072 43.0793 53.016 43.0793 52.904C43.0793 52.824 43.1033 52.728 43.1513 52.616C43.2793 52.344 43.4233 51.96 43.5833 51.464C43.7593 50.968 43.9753 50.544 44.2313 50.192C44.4073 49.84 44.5673 49.496 44.7113 49.16C44.8713 48.808 45.0233 48.456 45.1673 48.104C45.1673 48.104 45.1513 48.096 45.1193 48.08C45.1033 48.048 45.0953 48.016 45.0953 47.984C44.9993 47.92 44.8953 47.832 44.7833 47.72C44.6873 47.592 44.6793 47.464 44.7593 47.336C44.7913 47.304 44.8153 47.288 44.8313 47.288C44.8473 47.288 44.8553 47.288 44.8553 47.288C44.8553 47.272 44.8473 47.264 44.8313 47.264C44.8313 47.248 44.8313 47.24 44.8313 47.24C44.8313 47.176 44.8633 47.136 44.9273 47.12C44.9913 47.104 45.0233 47.08 45.0233 47.048C45.0553 46.824 45.2473 46.656 45.5993 46.544C45.9513 46.432 46.2633 46.376 46.5353 46.376C46.8073 46.376 46.9433 46.416 46.9433 46.496C46.9433 46.528 46.8953 46.584 46.7993 46.664C46.7513 46.696 46.6713 46.768 46.5592 46.88C46.4473 46.992 46.3433 47.128 46.2473 47.288L46.0553 47.576C46.0393 47.608 46.0153 47.648 45.9833 47.696C45.9673 47.728 45.9433 47.76 45.9113 47.792C45.6553 48.256 45.4473 48.648 45.2873 48.968C45.1273 49.288 44.9353 49.696 44.7113 50.192C44.6793 50.288 44.6633 50.352 44.6633 50.384C44.6633 50.496 44.7273 50.552 44.8553 50.552C44.9513 50.552 45.0473 50.528 45.1433 50.48L45.3833 50.384C45.7673 50.032 46.1673 49.736 46.5833 49.496C46.5993 49.496 46.6073 49.496 46.6073 49.496C46.6233 49.48 46.6393 49.472 46.6553 49.472C46.7033 49.472 46.7353 49.504 46.7513 49.568C46.7673 49.616 46.7513 49.656 46.7033 49.688C46.2393 49.944 45.8073 50.272 45.4073 50.672C45.3913 50.704 45.3753 50.736 45.3593 50.768C45.3433 50.8 45.3193 50.832 45.2873 50.864C45.2553 50.896 45.2073 50.952 45.1433 51.032C45.0953 51.112 45.0713 51.16 45.0713 51.176C45.0553 51.224 45.0313 51.24 44.9993 51.224C44.9833 51.208 44.9353 51.232 44.8553 51.296C44.8393 51.312 44.8233 51.344 44.8073 51.392C44.8073 51.44 44.7993 51.48 44.7833 51.512C44.7673 51.56 44.7353 51.6 44.6873 51.632C44.6553 51.648 44.6393 51.664 44.6393 51.68C44.6233 51.744 44.5913 51.784 44.5433 51.8C44.5113 51.8 44.4793 51.816 44.4473 51.848C44.4313 51.864 44.4313 51.888 44.4473 51.92C44.4633 51.952 44.4553 51.984 44.4233 52.016C44.4073 52.064 44.3913 52.088 44.3753 52.088C44.3593 52.072 44.3353 52.08 44.3033 52.112C44.2393 52.176 44.1913 52.208 44.1593 52.208C44.0633 52.24 44.0233 52.264 44.0393 52.28C44.0713 52.296 44.0953 52.312 44.1113 52.328C44.1433 52.328 44.1193 52.352 44.0393 52.4C44.0073 52.416 43.9753 52.464 43.9433 52.544C43.9113 52.608 43.8793 52.656 43.8473 52.688C43.7993 52.72 43.7513 52.744 43.7033 52.76C43.6713 52.776 43.6313 52.808 43.5833 52.856C43.4393 53 43.3193 53.072 43.2233 53.072ZM49.4871 53.072C48.8951 53.072 48.4471 52.968 48.1431 52.76C47.8391 52.552 47.6311 52.304 47.5191 52.016C47.4071 51.728 47.3751 51.4 47.4231 51.032L47.4711 50.96C47.5031 50.912 47.5271 50.848 47.5431 50.768C47.5591 50.688 47.5751 50.64 47.5911 50.624L47.7831 50.672C47.8151 50.688 47.8391 50.664 47.8551 50.6C47.8711 50.536 47.8631 50.512 47.8311 50.528C47.7351 50.544 47.6871 50.56 47.6871 50.576C47.6871 50.592 47.6711 50.56 47.6391 50.48L47.7111 50.432L47.6871 50.408C47.6871 50.376 47.7031 50.36 47.7351 50.36L47.6871 50.288C47.6871 50.288 47.7511 50.296 47.8791 50.312C48.0231 50.312 48.0791 50.296 48.0471 50.264C48.0631 50.264 48.0551 50.256 48.0231 50.24C47.9911 50.208 47.9751 50.184 47.9751 50.168C47.9591 50.184 47.9511 50.184 47.9511 50.168C47.9511 50.136 47.8951 50.136 47.7831 50.168C47.7351 50.184 47.7111 50.176 47.7111 50.144C47.7111 50.112 47.7111 50.096 47.7111 50.096C47.7591 50.08 47.8071 50.064 47.8551 50.048C47.9031 50.016 47.9351 49.968 47.9511 49.904C47.9671 49.744 47.9831 49.656 47.9991 49.64C48.0151 49.624 48.0311 49.6 48.0471 49.568C48.0631 49.536 48.0871 49.496 48.1191 49.448C48.1511 49.384 48.1751 49.352 48.1911 49.352C48.1751 49.336 48.1671 49.312 48.1671 49.28C48.1671 49.2 48.2231 49.168 48.3351 49.184C48.4631 49.2 48.5031 49.152 48.4551 49.04C48.4071 48.976 48.4311 48.944 48.5271 48.944L48.5031 48.92C48.5671 48.888 48.6071 48.872 48.6231 48.872C48.6551 48.856 48.6391 48.824 48.5751 48.776L48.6711 48.56C48.6871 48.528 48.7191 48.48 48.7671 48.416C48.8311 48.336 48.9271 48.256 49.0551 48.176C49.0551 48.176 49.0471 48.184 49.0311 48.2C49.0311 48.2 49.0311 48.208 49.0311 48.224H49.0551C49.1031 48.224 49.1911 48.176 49.3191 48.08C49.3031 48.064 49.2711 48.056 49.2231 48.056C49.1911 48.04 49.1671 48.024 49.1511 48.008C49.1351 47.96 49.2151 47.856 49.3911 47.696C49.5671 47.536 49.7591 47.384 49.9671 47.24C50.1751 47.08 50.3031 46.984 50.3511 46.952C50.5911 46.824 50.8551 46.72 51.1431 46.64C51.4471 46.544 51.7111 46.52 51.9351 46.568C51.9831 46.584 52.0551 46.648 52.1511 46.76C52.2631 46.872 52.3431 46.904 52.3911 46.856C52.5351 46.728 52.7031 46.6 52.8951 46.472C53.0871 46.344 53.1991 46.288 53.2311 46.304C53.3111 46.32 53.3911 46.352 53.4711 46.4C53.5511 46.432 53.5911 46.528 53.5911 46.688C53.5911 46.8 53.5831 46.896 53.5671 46.976C53.5511 47.072 53.5111 47.152 53.4471 47.216C53.3831 47.28 53.3191 47.352 53.2551 47.432C53.1911 47.528 53.0711 47.68 52.8951 47.888C52.7351 48.08 52.6151 48.2 52.5351 48.248C52.4871 48.264 52.4311 48.312 52.3671 48.392C52.3191 48.456 52.2551 48.52 52.1751 48.584C52.1111 48.632 52.0311 48.672 51.9351 48.704C51.8551 48.72 51.7991 48.736 51.7671 48.752C51.7351 48.768 51.6791 48.776 51.5991 48.776C51.5351 48.76 51.5191 48.728 51.5511 48.68C51.5671 48.664 51.5671 48.648 51.5511 48.632C51.5511 48.6 51.5511 48.576 51.5511 48.56C51.5671 48.528 51.5911 48.504 51.6231 48.488C51.6551 48.472 51.6791 48.448 51.6951 48.416C51.7111 48.4 51.7511 48.344 51.8151 48.248C51.8951 48.152 51.9351 48.096 51.9351 48.08C51.9191 48.064 51.9191 48.048 51.9351 48.032C51.9511 48 51.9591 47.976 51.9591 47.96C51.9751 47.944 51.9831 47.92 51.9831 47.888C51.9831 47.856 51.9991 47.84 52.0311 47.84C52.0951 47.824 52.1271 47.8 52.1271 47.768C52.1271 47.64 52.1351 47.52 52.1511 47.408C52.1831 47.296 52.1751 47.2 52.1271 47.12C52.0631 46.992 51.9431 46.928 51.7671 46.928C51.5271 46.928 51.2471 47.032 50.9271 47.24C50.6071 47.432 50.3911 47.592 50.2791 47.72C49.7671 48.296 49.3511 48.944 49.0311 49.664C48.7111 50.384 48.5831 51.024 48.6471 51.584C48.6791 51.856 48.7911 52.08 48.9831 52.256C49.1751 52.432 49.3911 52.52 49.6311 52.52H50.0391C50.0871 52.52 50.1351 52.52 50.1831 52.52C50.2471 52.504 50.3111 52.488 50.3751 52.472C50.4711 52.44 50.5431 52.424 50.5911 52.424C50.6711 52.344 50.7191 52.344 50.7351 52.424C50.8631 52.36 50.9191 52.336 50.9031 52.352C50.8871 52.368 50.9111 52.368 50.9751 52.352C51.2951 52.272 51.6071 52.136 51.9111 51.944C52.2151 51.752 52.4951 51.56 52.7511 51.368C52.7991 51.336 52.8791 51.288 52.9911 51.224C53.1031 51.16 53.1831 51.112 53.2311 51.08C53.2631 51.032 53.2871 50.992 53.3031 50.96C53.3351 50.912 53.3751 50.88 53.4231 50.864C53.4551 50.816 53.4951 50.768 53.5431 50.72C53.5911 50.656 53.6231 50.616 53.6391 50.6C53.7191 50.568 53.7431 50.544 53.7111 50.528C53.6791 50.496 53.7191 50.456 53.8311 50.408C53.8631 50.392 53.8951 50.384 53.9271 50.384C53.9591 50.384 53.9751 50.4 53.9751 50.432C53.9751 50.464 53.9271 50.552 53.8311 50.696C53.7671 50.808 53.6471 50.952 53.4711 51.128L53.2311 51.368L52.9431 51.512C52.9111 51.544 52.8951 51.576 52.8951 51.608C52.8951 51.624 52.8791 51.648 52.8471 51.68C52.3991 52.08 51.8871 52.416 51.3111 52.688C50.7511 52.944 50.1431 53.072 49.4871 53.072ZM56.3726 53.096C56.3566 53.096 56.3326 53.08 56.3006 53.048C56.2686 53.032 56.2446 53.024 56.2286 53.024C56.1646 53.04 56.1086 53.048 56.0606 53.048C56.0126 53.048 55.9646 53.048 55.9166 53.048C55.9006 53.048 55.8846 53.04 55.8686 53.024C55.8686 53.008 55.8606 53 55.8446 53C55.8286 53 55.8206 53 55.8206 53C55.8366 53.016 55.8366 53.024 55.8206 53.024C55.8206 53.024 55.8046 53.016 55.7726 53C55.7406 52.984 55.7166 52.976 55.7006 52.976L55.6766 52.952C55.6446 52.952 55.6206 52.944 55.6046 52.928C55.6046 52.912 55.5966 52.904 55.5806 52.904L55.5566 52.928L55.5326 52.904C55.5006 52.888 55.4526 52.872 55.3886 52.856C55.3406 52.824 55.3006 52.8 55.2686 52.784C55.2366 52.784 55.1966 52.76 55.1486 52.712H55.1006C55.0686 52.664 55.0126 52.632 54.9326 52.616C54.9326 52.6 54.9246 52.584 54.9086 52.568H54.8846C54.8526 52.52 54.8286 52.504 54.8126 52.52C54.7966 52.488 54.7726 52.464 54.7406 52.448C54.7246 52.416 54.7006 52.392 54.6686 52.376C54.6686 52.312 54.6526 52.28 54.6206 52.28C54.6206 52.248 54.5886 52.2 54.5246 52.136C54.4766 52.072 54.4446 52.016 54.4286 51.968L54.4046 51.944C54.3406 51.88 54.2926 51.776 54.2606 51.632C54.2446 51.568 54.2286 51.544 54.2126 51.56C54.2126 51.576 54.2046 51.536 54.1886 51.44C54.1886 51.424 54.1886 51.4 54.1886 51.368C54.2046 51.32 54.2046 51.288 54.1886 51.272C54.1886 51.256 54.1806 51.248 54.1646 51.248C54.1646 51.232 54.1646 51.216 54.1646 51.2C54.1486 51.184 54.1406 51.176 54.1406 51.176C54.1566 51.16 54.1646 51.152 54.1646 51.152C54.1646 51.12 54.1566 51.104 54.1406 51.104C54.1406 51.088 54.1406 51.072 54.1406 51.056V51.008C54.1406 50.928 54.1566 50.872 54.1886 50.84C54.1886 50.808 54.1966 50.784 54.2126 50.768C54.2286 50.752 54.2366 50.736 54.2366 50.72C54.2366 50.688 54.2526 50.672 54.2846 50.672C54.3166 50.672 54.3326 50.664 54.3326 50.648C54.3326 50.616 54.3406 50.6 54.3566 50.6C54.3886 50.584 54.4126 50.568 54.4286 50.552C54.4286 50.536 54.4366 50.52 54.4526 50.504C54.4846 50.488 54.5006 50.472 54.5006 50.456C54.5806 50.408 54.6686 50.384 54.7646 50.384C54.9566 50.384 55.0526 50.432 55.0526 50.528C55.0526 50.56 55.0046 50.616 54.9086 50.696C54.8926 50.744 54.8846 50.776 54.8846 50.792C54.9006 50.792 54.8926 50.808 54.8606 50.84C54.8766 50.888 54.8846 50.952 54.8846 51.032C54.8686 51.032 54.8606 51.056 54.8606 51.104C54.8766 51.136 54.8846 51.152 54.8846 51.152C54.8846 51.168 54.8926 51.216 54.9086 51.296C54.9406 51.376 54.9646 51.424 54.9806 51.44C54.9806 51.44 54.9966 51.48 55.0286 51.56C55.0606 51.624 55.0766 51.664 55.0766 51.68V51.728C55.1086 51.776 55.1246 51.808 55.1246 51.824C55.1406 51.824 55.2046 51.856 55.3166 51.92C55.3326 51.936 55.3646 51.944 55.4126 51.944C55.4926 51.992 55.5486 52.032 55.5806 52.064C55.6286 52.096 55.7406 52.128 55.9166 52.16C55.9806 52.176 56.0046 52.192 55.9886 52.208C55.9886 52.208 56.0206 52.208 56.0846 52.208C56.0846 52.208 56.0846 52.216 56.0846 52.232C56.0846 52.232 56.0926 52.232 56.1086 52.232C56.1406 52.216 56.1726 52.216 56.2046 52.232C56.2366 52.232 56.2686 52.224 56.3006 52.208H56.3966C56.5086 52.208 56.6286 52.192 56.7566 52.16L57.1166 52.064C57.2286 52.048 57.3326 52.016 57.4286 51.968C57.5246 51.92 57.6126 51.872 57.6926 51.824C57.7086 51.824 57.7566 51.8 57.8366 51.752C57.9166 51.688 58.0126 51.624 58.1246 51.56C58.1086 51.512 58.1006 51.448 58.1006 51.368C58.1006 51.32 58.1246 51.296 58.1726 51.296C58.2206 51.28 58.2526 51.256 58.2686 51.224C58.2206 51.192 58.1566 51.176 58.0766 51.176C58.0126 51.176 57.9886 51.152 58.0046 51.104C57.9406 50.752 57.8446 50.432 57.7166 50.144C57.6046 49.856 57.4686 49.536 57.3086 49.184C57.2926 49.136 57.2606 49.056 57.2126 48.944C57.1646 48.832 57.1326 48.744 57.1166 48.68C57.1166 48.664 57.1326 48.664 57.1646 48.68C57.1966 48.68 57.2046 48.672 57.1886 48.656C57.1726 48.576 57.1566 48.496 57.1406 48.416C57.1406 48.336 57.1326 48.264 57.1166 48.2C57.1006 48.168 57.1166 48.144 57.1646 48.128C57.2126 48.112 57.2286 48.088 57.2126 48.056C57.1966 48.024 57.1646 48.016 57.1166 48.032C57.0686 48.048 57.0366 48.04 57.0206 48.008L56.9486 47.72C56.9486 47.64 56.9326 47.592 56.9006 47.576C56.8846 47.56 56.9006 47.528 56.9486 47.48C56.9806 47.464 56.9966 47.44 56.9966 47.408C56.9966 47.36 57.0046 47.328 57.0206 47.312C57.1006 47.264 57.1326 47.208 57.1166 47.144C57.1006 47.064 57.1166 46.992 57.1646 46.928C57.2126 46.864 57.2526 46.808 57.2846 46.76C57.3166 46.696 57.3646 46.656 57.4286 46.64C57.4766 46.608 57.4926 46.616 57.4766 46.664C57.4606 46.712 57.4606 46.736 57.4766 46.736C57.5566 46.736 57.5886 46.696 57.5726 46.616C57.5566 46.536 57.5806 46.464 57.6446 46.4C57.7566 46.304 57.9246 46.224 58.1486 46.16C58.3726 46.096 58.5406 46.056 58.6526 46.04C58.6846 46.04 58.7086 46.04 58.7246 46.04C58.7566 46.024 58.7806 46.016 58.7966 46.016C58.8766 46.016 58.9566 46.024 59.0366 46.04C59.1326 46.056 59.2206 46.072 59.3006 46.088C59.3646 46.104 59.4606 46.168 59.5886 46.28C59.7166 46.376 59.8126 46.4 59.8766 46.352C60.0206 46.224 60.1726 46.112 60.3326 46.016C60.5086 45.92 60.6206 45.88 60.6686 45.896C60.7966 45.912 60.9086 45.952 61.0046 46.016C61.1006 46.064 61.1326 46.224 61.1006 46.496C61.0846 46.592 61.0446 46.672 60.9806 46.736C60.9326 46.784 60.8846 46.848 60.8366 46.928L60.6686 47.168C60.6046 47.28 60.5246 47.392 60.4286 47.504C60.3486 47.616 60.2766 47.688 60.2126 47.72C60.1486 47.752 60.0846 47.808 60.0206 47.888C59.9726 47.952 59.9086 48.016 59.8286 48.08C59.7486 48.144 59.6606 48.192 59.5646 48.224C59.4846 48.24 59.4286 48.256 59.3966 48.272C59.3486 48.288 59.2766 48.296 59.1806 48.296C59.1006 48.28 59.0766 48.248 59.1086 48.2C59.1406 48.184 59.1486 48.168 59.1326 48.152C59.1166 48.12 59.1086 48.096 59.1086 48.08C59.1086 48.048 59.1246 48.024 59.1566 48.008C59.2046 47.992 59.2366 47.968 59.2526 47.936C59.2686 47.92 59.3086 47.864 59.3726 47.768C59.4526 47.672 59.4846 47.616 59.4686 47.6C59.4686 47.552 59.4846 47.512 59.5166 47.48C59.5166 47.448 59.5166 47.424 59.5166 47.408C59.5166 47.376 59.5326 47.352 59.5646 47.336C59.6286 47.32 59.6606 47.296 59.6606 47.264V46.976C59.6606 46.912 59.6526 46.848 59.6366 46.784C59.6366 46.72 59.6206 46.664 59.5886 46.616C59.4606 46.456 59.2526 46.376 58.9646 46.376C58.7566 46.376 58.5566 46.424 58.3646 46.52C58.1566 46.616 57.9806 46.776 57.8366 47C57.7246 47.16 57.6686 47.328 57.6686 47.504C57.6686 47.632 57.6926 47.76 57.7406 47.888C57.8046 48.016 57.8606 48.136 57.9086 48.248C57.9566 48.36 58.0206 48.496 58.1006 48.656C58.1966 48.816 58.2686 48.944 58.3166 49.04C58.3966 49.168 58.4846 49.32 58.5806 49.496C58.6766 49.656 58.7486 49.808 58.7966 49.952C58.8126 49.968 58.7966 49.984 58.7486 50C58.7166 50 58.7086 50.016 58.7246 50.048C58.7406 50.08 58.7646 50.096 58.7966 50.096C58.8286 50.096 58.8526 50.112 58.8686 50.144C58.9006 50.192 58.9006 50.232 58.8686 50.264C58.8526 50.296 58.8526 50.344 58.8686 50.408C58.8686 50.424 58.8846 50.44 58.9166 50.456C58.9486 50.472 58.9646 50.488 58.9646 50.504C59.0446 50.712 59.0846 50.88 59.0846 51.008C59.2286 50.928 59.3886 50.832 59.5646 50.72C59.7406 50.608 59.8366 50.504 59.8526 50.408C59.8686 50.376 59.8926 50.368 59.9246 50.384C59.9726 50.384 59.9966 50.4 59.9966 50.432C59.9806 50.544 59.8446 50.696 59.5886 50.888C59.3486 51.08 59.1646 51.216 59.0366 51.296C59.0526 51.312 59.0446 51.352 59.0126 51.416C58.9806 51.48 58.9726 51.528 58.9886 51.56C58.9886 51.576 58.9806 51.6 58.9646 51.632C58.9486 51.648 58.9326 51.672 58.9166 51.704C58.9166 51.768 58.9006 51.816 58.8686 51.848V51.896L58.7966 51.944C58.7806 51.96 58.7566 52 58.7246 52.064C58.7086 52.112 58.6846 52.152 58.6526 52.184H58.5806C58.5486 52.216 58.5326 52.256 58.5326 52.304C58.5006 52.352 58.4286 52.408 58.3166 52.472C58.2046 52.52 58.1326 52.568 58.1006 52.616C58.1006 52.616 58.0926 52.616 58.0766 52.616C58.0606 52.616 58.0366 52.632 58.0046 52.664H57.9326C57.9166 52.664 57.9006 52.68 57.8846 52.712C57.8686 52.728 57.8526 52.744 57.8366 52.76C57.7886 52.76 57.7646 52.776 57.7646 52.808C57.7006 52.808 57.6526 52.816 57.6206 52.832L57.3806 52.88C57.3166 52.944 57.2606 52.976 57.2126 52.976L57.1886 52.952C57.1566 52.984 57.1326 53 57.1166 53H57.0206C57.0046 53 56.9886 53.008 56.9726 53.024C56.9566 53.04 56.9406 53.048 56.9246 53.048H56.8766C56.8606 53.048 56.8446 53.048 56.8286 53.048C56.8286 53.064 56.8126 53.072 56.7806 53.072C56.7326 53.072 56.6606 53.072 56.5646 53.072C56.4846 53.072 56.4206 53.08 56.3726 53.096ZM56.1326 52.88C56.1326 52.88 56.1486 52.88 56.1806 52.88C56.2286 52.864 56.2606 52.856 56.2766 52.856C56.3566 52.856 56.4286 52.864 56.4926 52.88C56.5566 52.88 56.6206 52.88 56.6846 52.88C56.7166 52.88 56.7326 52.864 56.7326 52.832H56.7806C56.8286 52.784 56.8526 52.776 56.8526 52.808C56.8686 52.84 56.8926 52.84 56.9246 52.808C56.9566 52.808 56.9726 52.8 56.9726 52.784L57.0686 52.736C57.0846 52.736 57.0926 52.736 57.0926 52.736C57.0926 52.72 57.1006 52.712 57.1166 52.712H57.1646C57.1966 52.712 57.2286 52.696 57.2606 52.664C57.2926 52.632 57.3086 52.616 57.3086 52.616C57.3086 52.616 57.3326 52.592 57.3806 52.544C57.3806 52.544 57.3886 52.544 57.4046 52.544C57.4206 52.528 57.4366 52.52 57.4526 52.52C57.4846 52.488 57.5166 52.472 57.5486 52.472C57.5486 52.456 57.5646 52.44 57.5966 52.424C57.6286 52.392 57.6446 52.376 57.6446 52.376C57.6606 52.36 57.6766 52.352 57.6926 52.352C57.7246 52.336 57.7406 52.32 57.7406 52.304C57.7726 52.304 57.8366 52.248 57.9326 52.136C58.0286 52.024 58.0926 51.888 58.1246 51.728C58.1246 51.696 58.0766 51.72 57.9806 51.8C57.8846 51.864 57.8366 51.896 57.8366 51.896C57.7886 51.912 57.7406 51.944 57.6926 51.992C57.6446 52.024 57.6046 52.04 57.5726 52.04C57.5566 52.04 57.5326 52.056 57.5006 52.088C57.4846 52.104 57.4686 52.112 57.4526 52.112C57.4366 52.112 57.4286 52.12 57.4286 52.136C57.4286 52.136 57.4126 52.128 57.3806 52.112C57.3646 52.144 57.3166 52.176 57.2366 52.208C57.1566 52.24 57.1006 52.256 57.0686 52.256H56.9966L56.9726 52.28C56.9726 52.28 56.9646 52.288 56.9486 52.304C56.9326 52.304 56.9166 52.304 56.9006 52.304L56.7326 52.328H56.7086C56.6926 52.328 56.6766 52.336 56.6606 52.352C56.5966 52.352 56.5246 52.36 56.4446 52.376C56.3646 52.392 56.3166 52.4 56.3006 52.4H56.2766C56.2766 52.384 56.2686 52.376 56.2526 52.376V52.4H56.1326C56.0846 52.4 56.0286 52.392 55.9646 52.376C55.9166 52.344 55.8766 52.328 55.8446 52.328C55.8286 52.328 55.8206 52.336 55.8206 52.352C55.8206 52.352 55.8126 52.352 55.7966 52.352H55.7486C55.7326 52.352 55.7246 52.344 55.7246 52.328H55.6046C55.6046 52.28 55.5886 52.272 55.5566 52.304H55.5326C55.4686 52.304 55.4126 52.28 55.3646 52.232C55.3326 52.184 55.2766 52.16 55.1966 52.16L55.1246 52.088C55.1246 52.104 55.1166 52.12 55.1006 52.136C55.1006 52.136 55.1006 52.144 55.1006 52.16C55.1006 52.16 55.1086 52.176 55.1246 52.208C55.1566 52.224 55.1726 52.24 55.1726 52.256L55.2206 52.352L55.3166 52.472L55.3646 52.52C55.3806 52.536 55.3886 52.544 55.3886 52.544C55.4046 52.544 55.4206 52.56 55.4366 52.592C55.4686 52.592 55.4846 52.616 55.4846 52.664C55.7566 52.808 55.9726 52.88 56.1326 52.88Z" fill="white"/>
</svg>
