<svg width="48" height="49" viewBox="0 0 48 49" fill="none" xmlns="http://www.w3.org/2000/svg">
<path d="M35.06 16.04C34.9207 16.02 34.7793 16.02 34.64 16.04C33.1463 15.9911 31.7303 15.3624 30.6924 14.2871C29.6544 13.2118 29.0761 11.7745 29.08 10.28C29.08 7.1 31.66 4.5 34.86 4.5C38.04 4.5 40.64 7.08 40.64 10.28C40.6357 11.7755 40.052 13.2111 39.0115 14.2852C37.9709 15.3593 36.5546 15.9883 35.06 16.04ZM41.584 29.9C39.344 31.4 36.204 31.96 33.304 31.58C34.064 29.94 34.464 28.12 34.484 26.2C34.484 24.2 34.044 22.3 33.204 20.64C36.164 20.24 39.304 20.8 41.564 22.3C44.724 24.38 44.724 27.8 41.584 29.9ZM12.88 16.04C13.02 16.02 13.16 16.02 13.3 16.04C14.7937 15.9911 16.2097 15.3624 17.2476 14.2871C18.2856 13.2118 18.8639 11.7745 18.86 10.28C18.86 9.52227 18.7108 8.77197 18.4208 8.07192C18.1308 7.37187 17.7058 6.73579 17.17 6.19999C16.6342 5.6642 15.9981 5.23918 15.2981 4.94921C14.598 4.65925 13.8477 4.51 13.09 4.51C12.3323 4.51 11.582 4.65925 10.8819 4.94921C10.1819 5.23918 9.54579 5.6642 9.01 6.19999C8.4742 6.73579 8.04919 7.37187 7.75922 8.07192C7.46925 8.77197 7.32 9.52227 7.32 10.28C7.32 13.4 9.78 15.94 12.88 16.04ZM13.102 26.2C13.102 28.14 13.522 29.98 14.282 31.64C11.462 31.94 8.522 31.34 6.362 29.92C3.202 27.82 3.202 24.4 6.362 22.3C8.502 20.86 11.522 20.28 14.362 20.6C13.542 22.28 13.102 24.18 13.102 26.2ZM24.24 32.24C24.0672 32.22 23.8928 32.22 23.72 32.24C21.9417 32.1803 20.2564 31.4309 19.0209 30.1506C17.7853 28.8702 17.0964 27.1593 17.1 25.38C17.12 21.58 20.18 18.5 24 18.5C27.8 18.5 30.88 21.58 30.88 25.38C30.8789 27.1613 30.1858 28.8725 28.9469 30.1524C27.708 31.4323 26.0203 32.1809 24.24 32.24ZM17.74 36.38C14.72 38.4 14.72 41.72 17.74 43.72C21.18 46.02 26.82 46.02 30.26 43.72C33.28 41.7 33.28 38.38 30.26 36.38C26.84 34.08 21.2 34.08 17.74 36.38Z" fill="#F8EBFF"/>
</svg>
