<svg width="48" height="49" viewBox="0 0 48 49" fill="none" xmlns="http://www.w3.org/2000/svg">
<path d="M40.2 18.942C36.58 18.942 35.1 16.382 36.9 13.242C37.94 11.422 37.32 9.10201 35.5 8.06201L32.04 6.08201C30.46 5.14201 28.42 5.70201 27.48 7.28201L27.26 7.66201C25.46 10.802 22.5 10.802 20.68 7.66201L20.46 7.28201C20.2444 6.90397 19.9558 6.57259 19.6109 6.30714C19.266 6.04169 18.8718 5.84748 18.4512 5.73581C18.0306 5.62414 17.5919 5.59724 17.1608 5.65668C16.7297 5.71611 16.3147 5.86069 15.94 6.08201L12.48 8.06201C10.66 9.10201 10.04 11.442 11.08 13.262C12.9 16.382 11.42 18.942 7.8 18.942C5.72 18.942 4 20.642 4 22.742V26.262C4 28.342 5.7 30.062 7.8 30.062C11.42 30.062 12.9 32.622 11.08 35.762C10.04 37.582 10.66 39.902 12.48 40.942L15.94 42.922C17.52 43.862 19.56 43.302 20.5 41.722L20.72 41.342C22.52 38.202 25.48 38.202 27.3 41.342L27.52 41.722C28.46 43.302 30.5 43.862 32.08 42.922L35.54 40.942C37.36 39.902 37.98 37.562 36.94 35.762C35.12 32.622 36.6 30.062 40.22 30.062C42.3 30.062 44.02 28.362 44.02 26.262V22.742C44.0095 21.734 43.6031 20.7705 42.8884 20.0596C42.1737 19.3486 41.2081 18.9472 40.2 18.942ZM24 31.002C20.42 31.002 17.5 28.082 17.5 24.502C17.5 20.922 20.42 18.002 24 18.002C27.58 18.002 30.5 20.922 30.5 24.502C30.5 28.082 27.58 31.002 24 31.002Z" fill="#F8EBFF"/>
</svg>
