<svg width="48" height="49" viewBox="0 0 48 49" fill="none" xmlns="http://www.w3.org/2000/svg">
<path d="M44.72 17.04L44.14 11.5C43.3 5.46 40.56 3 34.7 3H13.18C7.29997 3 4.57997 5.46 3.71997 11.56L3.17997 17.06C2.97997 19.2 3.55997 21.28 4.81997 22.9C6.33997 24.88 8.67997 26 11.28 26C13.8 26 16.22 24.74 17.74 22.72C18.434 23.7386 19.3682 24.5706 20.4599 25.1426C21.5517 25.7147 22.7675 26.0091 24 26C26.58 26 28.84 24.8 30.22 22.8C31.76 24.78 34.14 26 36.62 26C39.28 26 41.68 24.82 43.18 22.74C44.38 21.14 44.92 19.12 44.72 17.04ZM22.7 33.82C21.4722 33.9511 20.3366 34.5329 19.5128 35.4527C18.689 36.3726 18.2355 37.5652 18.24 38.8V44.28C18.24 44.82 18.68 45.26 19.22 45.26H28.76C29.3 45.26 29.74 44.82 29.74 44.28V39.5C29.76 35.32 27.3 33.34 22.7 33.82Z" fill="white"/>
<path d="M42.74 29.296V35.256C42.74 40.776 38.26 45.256 32.74 45.256C32.4801 45.256 32.2308 45.1528 32.0471 44.969C31.8633 44.7852 31.76 44.5359 31.76 44.276V39.496C31.76 36.936 30.98 34.936 29.46 33.576C28.12 32.356 26.3 31.756 24.04 31.756C23.54 31.756 23.04 31.776 22.5 31.836C20.7788 32.0122 19.1847 32.8223 18.0277 34.1087C16.8707 35.3951 16.2335 37.0658 16.24 38.796V44.276C16.24 44.816 15.8 45.256 15.26 45.256C9.74001 45.256 5.26001 40.776 5.26001 35.256V29.336C5.26015 29.0149 5.33759 28.6986 5.48579 28.4137C5.63399 28.1289 5.84859 27.8839 6.11145 27.6995C6.37431 27.5151 6.6777 27.3968 6.99597 27.3544C7.31425 27.312 7.63805 27.3468 7.94001 27.456C8.48001 27.636 9.02001 27.776 9.58001 27.856C9.82001 27.896 10.08 27.936 10.32 27.936C10.64 27.976 10.96 27.996 11.28 27.996C13.6 27.996 15.88 27.136 17.68 25.656C19.4 27.136 21.64 27.996 24 27.996C26.38 27.996 28.58 27.176 30.3 25.696C32.1 27.156 34.34 27.996 36.62 27.996C36.98 27.996 37.34 27.976 37.68 27.936C38.5057 27.8674 39.3191 27.6927 40.1 27.416C40.3997 27.3134 40.7196 27.2836 41.033 27.3292C41.3465 27.3748 41.6446 27.4945 41.9027 27.6782C42.1607 27.862 42.3713 28.1046 42.5169 28.3859C42.6625 28.6672 42.739 28.9792 42.74 29.296Z" fill="white"/>
</svg>
