<svg width="48" height="49" viewBox="0 0 48 49" fill="none" xmlns="http://www.w3.org/2000/svg">
<path d="M32.38 4.5H15.62C8.34 4.5 4 8.84 4 16.12V32.86C4 40.16 8.34 44.5 15.62 44.5H32.36C39.64 44.5 43.98 40.16 43.98 32.88V16.12C44 8.84 39.66 4.5 32.38 4.5ZM15.26 36.8C15.26 37.62 14.58 38.3 13.76 38.3C12.94 38.3 12.26 37.62 12.26 36.8V32.66C12.26 31.84 12.94 31.16 13.76 31.16C14.58 31.16 15.26 31.84 15.26 32.66V36.8ZM25.5 36.8C25.5 37.62 24.82 38.3 24 38.3C23.18 38.3 22.5 37.62 22.5 36.8V28.5C22.5 27.68 23.18 27 24 27C24.82 27 25.5 27.68 25.5 28.5V36.8ZM35.74 36.8C35.74 37.62 35.06 38.3 34.24 38.3C33.42 38.3 32.74 37.62 32.74 36.8V24.36C32.74 23.54 33.42 22.86 34.24 22.86C35.06 22.86 35.74 23.54 35.74 24.36V36.8ZM35.74 18.04C35.74 18.86 35.06 19.54 34.24 19.54C33.42 19.54 32.74 18.86 32.74 18.04V16.1C27.6573 21.3435 21.2067 25.0573 14.12 26.82C14 26.86 13.88 26.86 13.76 26.86C13.08 26.86 12.48 26.4 12.3 25.72C12.1 24.92 12.58 24.1 13.4 23.9C20.0887 22.2321 26.1607 18.686 30.9 13.68H28.4C27.58 13.68 26.9 13 26.9 12.18C26.9 11.36 27.58 10.68 28.4 10.68H34.26C34.34 10.68 34.4 10.72 34.48 10.72C34.58 10.74 34.68 10.74 34.78 10.78C34.88 10.82 34.96 10.88 35.06 10.94C35.12 10.98 35.18 11 35.24 11.04C35.26 11.06 35.26 11.08 35.28 11.08C35.36 11.16 35.42 11.24 35.48 11.32C35.54 11.4 35.6 11.46 35.62 11.54C35.66 11.62 35.66 11.7 35.68 11.8C35.7 11.9 35.74 12 35.74 12.12C35.74 12.14 35.76 12.16 35.76 12.18V18.04H35.74Z" fill="#F8EBFF"/>
</svg>
